<?xml version="1.0" encoding="utf-8" standalone="no"?>
<!DOCTYPE svg PUBLIC "-//W3C//DTD SVG 1.1//EN"
  "http://www.w3.org/Graphics/SVG/1.1/DTD/svg11.dtd">
<svg xmlns:xlink="http://www.w3.org/1999/xlink" width="619.2pt" height="676.8pt" viewBox="0 0 619.2 676.8" xmlns="http://www.w3.org/2000/svg" version="1.1">
 <metadata>
  <rdf:RDF xmlns:dc="http://purl.org/dc/elements/1.1/" xmlns:cc="http://creativecommons.org/ns#" xmlns:rdf="http://www.w3.org/1999/02/22-rdf-syntax-ns#">
   <cc:Work>
    <dc:type rdf:resource="http://purl.org/dc/dcmitype/StillImage"/>
    <dc:date>2026-06-17T14:56:42.019614</dc:date>
    <dc:format>image/svg+xml</dc:format>
    <dc:creator>
     <cc:Agent>
      <dc:title>Matplotlib v3.11.0, https://matplotlib.org/</dc:title>
     </cc:Agent>
    </dc:creator>
   </cc:Work>
  </rdf:RDF>
 </metadata>
 <defs>
  <style type="text/css">*{stroke-linejoin: round; stroke-linecap: butt}</style>
 </defs>
 <g id="figure_1">
  <g id="patch_1">
   <path d="M 0 676.8 
L 619.2 676.8 
L 619.2 0 
L 0 0 
z
" style="fill: #f4f1e8"/>
  </g>
  <g id="axes_1">
   <g id="patch_2">
    <path d="M 62.1936 60.5952 
L 353.8224 60.5952 
Q 366.9696 60.5952 366.9696 46.1808 
L 366.9696 27.8352 
Q 366.9696 13.4208 353.8224 13.4208 
L 62.1936 13.4208 
Q 49.0464 13.4208 49.0464 27.8352 
L 49.0464 46.1808 
Q 49.0464 60.5952 62.1936 60.5952 
z
" clip-path="url(#pf77eeb46b0)" style="fill: #f4f1e8; stroke: #0f0e0b; stroke-width: 1.8; stroke-linejoin: miter"/>
   </g>
   <g id="patch_3">
    <path d="M 208.008 61.939352 
Q 208.008 69.441822 208.008 74.931831 
" clip-path="url(#pf77eeb46b0)" style="fill: none; stroke: #0f0e0b; stroke-width: 1.8; stroke-linecap: round"/>
    <path d="M 211.208 68.531831 
L 208.008 74.931831 
L 204.808 68.531831 
z
" clip-path="url(#pf77eeb46b0)" style="fill: #0f0e0b; stroke: #0f0e0b; stroke-width: 1.8; stroke-linecap: round"/>
   </g>
   <g id="patch_4">
    <path d="M 98.0496 155.5992 
L 317.9664 155.5992 
Q 331.1136 155.5992 331.1136 141.1848 
L 331.1136 90.0792 
Q 331.1136 75.6648 317.9664 75.6648 
L 98.0496 75.6648 
Q 84.9024 75.6648 84.9024 90.0792 
L 84.9024 141.1848 
Q 84.9024 155.5992 98.0496 155.5992 
z
" clip-path="url(#pf77eeb46b0)" style="fill: #0f0e0b; stroke: #0f0e0b; stroke-width: 1.8; stroke-linejoin: miter"/>
   </g>
   <g id="patch_5">
    <path d="M 98.0496 266.9832 
L 317.9664 266.9832 
Q 331.1136 266.9832 331.1136 252.5688 
L 331.1136 201.4632 
Q 331.1136 187.0488 317.9664 187.0488 
L 98.0496 187.0488 
Q 84.9024 187.0488 84.9024 201.4632 
L 84.9024 252.5688 
Q 84.9024 266.9832 98.0496 266.9832 
z
" clip-path="url(#pf77eeb46b0)" style="fill: #0f0e0b; stroke: #0f0e0b; stroke-width: 1.8; stroke-linejoin: miter"/>
   </g>
   <g id="patch_6">
    <path d="M 98.0496 378.3672 
L 317.9664 378.3672 
Q 331.1136 378.3672 331.1136 363.9528 
L 331.1136 312.8472 
Q 331.1136 298.4328 317.9664 298.4328 
L 98.0496 298.4328 
Q 84.9024 298.4328 84.9024 312.8472 
L 84.9024 363.9528 
Q 84.9024 378.3672 98.0496 378.3672 
z
" clip-path="url(#pf77eeb46b0)" style="fill: #0f0e0b; stroke: #0f0e0b; stroke-width: 1.8; stroke-linejoin: miter"/>
   </g>
   <g id="patch_7">
    <path d="M 98.0496 489.7512 
L 317.9664 489.7512 
Q 331.1136 489.7512 331.1136 475.3368 
L 331.1136 424.2312 
Q 331.1136 409.8168 317.9664 409.8168 
L 98.0496 409.8168 
Q 84.9024 409.8168 84.9024 424.2312 
L 84.9024 475.3368 
Q 84.9024 489.7512 98.0496 489.7512 
z
" clip-path="url(#pf77eeb46b0)" style="fill: #0f0e0b; stroke: #0f0e0b; stroke-width: 1.8; stroke-linejoin: miter"/>
   </g>
   <g id="patch_8">
    <path d="M 208.008 153.669111 
Q 208.008 171.324832 208.008 186.968091 
" clip-path="url(#pf77eeb46b0)" style="fill: none; stroke: #0f0e0b; stroke-width: 1.8; stroke-linecap: round"/>
    <path d="M 211.208 180.568091 
L 208.008 186.968091 
L 204.808 180.568091 
z
" clip-path="url(#pf77eeb46b0)" style="fill: #0f0e0b; stroke: #0f0e0b; stroke-width: 1.8; stroke-linecap: round"/>
   </g>
   <g id="patch_9">
    <path d="M 208.008 265.053111 
Q 208.008 282.708832 208.008 298.352091 
" clip-path="url(#pf77eeb46b0)" style="fill: none; stroke: #0f0e0b; stroke-width: 1.8; stroke-linecap: round"/>
    <path d="M 211.208 291.952091 
L 208.008 298.352091 
L 204.808 291.952091 
z
" clip-path="url(#pf77eeb46b0)" style="fill: #0f0e0b; stroke: #0f0e0b; stroke-width: 1.8; stroke-linecap: round"/>
   </g>
   <g id="patch_10">
    <path d="M 208.008 376.437111 
Q 208.008 394.092832 208.008 409.736091 
" clip-path="url(#pf77eeb46b0)" style="fill: none; stroke: #0f0e0b; stroke-width: 1.8; stroke-linecap: round"/>
    <path d="M 211.208 403.336091 
L 208.008 409.736091 
L 204.808 403.336091 
z
" clip-path="url(#pf77eeb46b0)" style="fill: #0f0e0b; stroke: #0f0e0b; stroke-width: 1.8; stroke-linecap: round"/>
   </g>
   <g id="patch_11">
    <path d="M 329.528268 115.632 
Q 363.382113 115.632 395.223497 115.632 
" clip-path="url(#pf77eeb46b0)" style="fill: none; stroke: #0f0e0b; stroke-width: 1.8; stroke-linecap: round"/>
    <path d="M 388.823497 112.432 
L 395.223497 115.632 
L 388.823497 118.832 
z
" clip-path="url(#pf77eeb46b0)" style="fill: #0f0e0b; stroke: #0f0e0b; stroke-width: 1.8; stroke-linecap: round"/>
   </g>
   <g id="patch_12">
    <path d="M 396.8496 155.5992 
L 557.0064 155.5992 
Q 570.1536 155.5992 570.1536 141.1848 
L 570.1536 90.0792 
Q 570.1536 75.6648 557.0064 75.6648 
L 396.8496 75.6648 
Q 383.7024 75.6648 383.7024 90.0792 
L 383.7024 141.1848 
Q 383.7024 155.5992 396.8496 155.5992 
z
" clip-path="url(#pf77eeb46b0)" style="fill: #00b870; stroke: #00b870; stroke-width: 1.8; stroke-linejoin: miter"/>
   </g>
   <g id="patch_13">
    <path d="M 329.528268 227.016 
Q 363.382113 227.016 395.223497 227.016 
" clip-path="url(#pf77eeb46b0)" style="fill: none; stroke: #0f0e0b; stroke-width: 1.8; stroke-linecap: round"/>
    <path d="M 388.823497 223.816 
L 395.223497 227.016 
L 388.823497 230.216 
z
" clip-path="url(#pf77eeb46b0)" style="fill: #0f0e0b; stroke: #0f0e0b; stroke-width: 1.8; stroke-linecap: round"/>
   </g>
   <g id="patch_14">
    <path d="M 396.8496 266.9832 
L 557.0064 266.9832 
Q 570.1536 266.9832 570.1536 252.5688 
L 570.1536 201.4632 
Q 570.1536 187.0488 557.0064 187.0488 
L 396.8496 187.0488 
Q 383.7024 187.0488 383.7024 201.4632 
L 383.7024 252.5688 
Q 383.7024 266.9832 396.8496 266.9832 
z
" clip-path="url(#pf77eeb46b0)" style="fill: #00b870; stroke: #00b870; stroke-width: 1.8; stroke-linejoin: miter"/>
   </g>
   <g id="patch_15">
    <path d="M 329.528268 338.4 
Q 363.382113 338.4 395.223497 338.4 
" clip-path="url(#pf77eeb46b0)" style="fill: none; stroke: #0f0e0b; stroke-width: 1.8; stroke-linecap: round"/>
    <path d="M 388.823497 335.2 
L 395.223497 338.4 
L 388.823497 341.6 
z
" clip-path="url(#pf77eeb46b0)" style="fill: #0f0e0b; stroke: #0f0e0b; stroke-width: 1.8; stroke-linecap: round"/>
   </g>
   <g id="patch_16">
    <path d="M 396.8496 378.3672 
L 557.0064 378.3672 
Q 570.1536 378.3672 570.1536 363.9528 
L 570.1536 312.8472 
Q 570.1536 298.4328 557.0064 298.4328 
L 396.8496 298.4328 
Q 383.7024 298.4328 383.7024 312.8472 
L 383.7024 363.9528 
Q 383.7024 378.3672 396.8496 378.3672 
z
" clip-path="url(#pf77eeb46b0)" style="fill: #00b870; stroke: #00b870; stroke-width: 1.8; stroke-linejoin: miter"/>
   </g>
   <g id="patch_17">
    <path d="M 188.734816 487.29484 
Q 166.176926 512.026985 144.975202 535.272249 
" clip-path="url(#pf77eeb46b0)" style="fill: none; stroke: #0f0e0b; stroke-width: 1.8; stroke-linecap: round"/>
    <path d="M 151.652339 532.700122 
L 144.975202 535.272249 
L 146.923783 528.387263 
z
" clip-path="url(#pf77eeb46b0)" style="fill: #0f0e0b; stroke: #0f0e0b; stroke-width: 1.8; stroke-linecap: round"/>
   </g>
   <g id="patch_18">
    <path d="M 50.2416 617.5152 
L 234.3024 617.5152 
Q 247.4496 617.5152 247.4496 603.1008 
L 247.4496 545.4432 
Q 247.4496 531.0288 234.3024 531.0288 
L 50.2416 531.0288 
Q 37.0944 531.0288 37.0944 545.4432 
L 37.0944 603.1008 
Q 37.0944 617.5152 50.2416 617.5152 
z
" clip-path="url(#pf77eeb46b0)" style="fill: #1b3dff; stroke: #1b3dff; stroke-width: 1.8; stroke-linejoin: miter"/>
   </g>
   <g id="patch_19">
    <path d="M 257.65815 486.589412 
Q 318.562426 512.027343 377.609708 536.689661 
" clip-path="url(#pf77eeb46b0)" style="fill: none; stroke: #0f0e0b; stroke-width: 1.8; stroke-linecap: round"/>
    <path d="M 372.937418 531.270279 
L 377.609708 536.689661 
L 370.470828 537.175864 
z
" clip-path="url(#pf77eeb46b0)" style="fill: #0f0e0b; stroke: #0f0e0b; stroke-width: 1.8; stroke-linecap: round"/>
   </g>
   <g id="patch_20">
    <path d="M 313.1856 617.5152 
L 473.3424 617.5152 
Q 486.4896 617.5152 486.4896 603.1008 
L 486.4896 545.4432 
Q 486.4896 531.0288 473.3424 531.0288 
L 313.1856 531.0288 
Q 300.0384 531.0288 300.0384 545.4432 
L 300.0384 603.1008 
Q 300.0384 617.5152 313.1856 617.5152 
z
" clip-path="url(#pf77eeb46b0)" style="fill: #f4f1e8; stroke: #0f0e0b; stroke-width: 1.8; stroke-linejoin: miter"/>
   </g>
   <g id="text_1">
    <!-- A decision the AI is about to finalize -->
    <g style="fill: #0f0e0b" transform="translate(96.161203 39.865852) scale(0.11 -0.11)">
     <defs>
      <path id="DejaVuSans-Bold-24" d="M 3419 850 
L 1538 850 
L 1241 0 
L 31 0 
L 1759 4666 
L 3194 4666 
L 4922 0 
L 3713 0 
L 3419 850 
z
M 1838 1716 
L 3116 1716 
L 2478 3572 
L 1838 1716 
z
" transform="scale(0.015625)"/>
      <path id="DejaVuSans-Bold-3" transform="scale(0.015625)"/>
      <path id="DejaVuSans-Bold-47" d="M 2919 2988 
L 2919 4863 
L 4044 4863 
L 4044 0 
L 2919 0 
L 2919 506 
Q 2688 197 2409 53 
Q 2131 -91 1766 -91 
Q 1119 -91 703 423 
Q 288 938 288 1747 
Q 288 2556 703 3070 
Q 1119 3584 1766 3584 
Q 2128 3584 2408 3439 
Q 2688 3294 2919 2988 
z
M 2181 722 
Q 2541 722 2730 984 
Q 2919 1247 2919 1747 
Q 2919 2247 2730 2509 
Q 2541 2772 2181 2772 
Q 1825 2772 1636 2509 
Q 1447 2247 1447 1747 
Q 1447 1247 1636 984 
Q 1825 722 2181 722 
z
" transform="scale(0.015625)"/>
      <path id="DejaVuSans-Bold-48" d="M 4031 1759 
L 4031 1441 
L 1416 1441 
Q 1456 1047 1700 850 
Q 1944 653 2381 653 
Q 2734 653 3104 758 
Q 3475 863 3866 1075 
L 3866 213 
Q 3469 63 3072 -14 
Q 2675 -91 2278 -91 
Q 1328 -91 801 392 
Q 275 875 275 1747 
Q 275 2603 792 3093 
Q 1309 3584 2216 3584 
Q 3041 3584 3536 3087 
Q 4031 2591 4031 1759 
z
M 2881 2131 
Q 2881 2450 2695 2645 
Q 2509 2841 2209 2841 
Q 1884 2841 1681 2658 
Q 1478 2475 1428 2131 
L 2881 2131 
z
" transform="scale(0.015625)"/>
      <path id="DejaVuSans-Bold-46" d="M 3366 3391 
L 3366 2478 
Q 3138 2634 2908 2709 
Q 2678 2784 2431 2784 
Q 1963 2784 1702 2511 
Q 1441 2238 1441 1747 
Q 1441 1256 1702 982 
Q 1963 709 2431 709 
Q 2694 709 2930 787 
Q 3166 866 3366 1019 
L 3366 103 
Q 3103 6 2833 -42 
Q 2563 -91 2291 -91 
Q 1344 -91 809 395 
Q 275 881 275 1747 
Q 275 2613 809 3098 
Q 1344 3584 2291 3584 
Q 2566 3584 2833 3536 
Q 3100 3488 3366 3391 
z
" transform="scale(0.015625)"/>
      <path id="DejaVuSans-Bold-4c" d="M 538 3500 
L 1656 3500 
L 1656 0 
L 538 0 
L 538 3500 
z
M 538 4863 
L 1656 4863 
L 1656 3950 
L 538 3950 
L 538 4863 
z
" transform="scale(0.015625)"/>
      <path id="DejaVuSans-Bold-56" d="M 3272 3391 
L 3272 2541 
Q 2913 2691 2578 2766 
Q 2244 2841 1947 2841 
Q 1628 2841 1473 2761 
Q 1319 2681 1319 2516 
Q 1319 2381 1436 2309 
Q 1553 2238 1856 2203 
L 2053 2175 
Q 2913 2066 3209 1816 
Q 3506 1566 3506 1031 
Q 3506 472 3093 190 
Q 2681 -91 1863 -91 
Q 1516 -91 1145 -36 
Q 775 19 384 128 
L 384 978 
Q 719 816 1070 734 
Q 1422 653 1784 653 
Q 2113 653 2278 743 
Q 2444 834 2444 1013 
Q 2444 1163 2330 1236 
Q 2216 1309 1875 1350 
L 1678 1375 
Q 931 1469 631 1722 
Q 331 1975 331 2491 
Q 331 3047 712 3315 
Q 1094 3584 1881 3584 
Q 2191 3584 2531 3537 
Q 2872 3491 3272 3391 
z
" transform="scale(0.015625)"/>
      <path id="DejaVuSans-Bold-52" d="M 2203 2784 
Q 1831 2784 1636 2517 
Q 1441 2250 1441 1747 
Q 1441 1244 1636 976 
Q 1831 709 2203 709 
Q 2569 709 2762 976 
Q 2956 1244 2956 1747 
Q 2956 2250 2762 2517 
Q 2569 2784 2203 2784 
z
M 2203 3584 
Q 3106 3584 3614 3096 
Q 4122 2609 4122 1747 
Q 4122 884 3614 396 
Q 3106 -91 2203 -91 
Q 1297 -91 786 396 
Q 275 884 275 1747 
Q 275 2609 786 3096 
Q 1297 3584 2203 3584 
z
" transform="scale(0.015625)"/>
      <path id="DejaVuSans-Bold-51" d="M 4056 2131 
L 4056 0 
L 2931 0 
L 2931 347 
L 2931 1631 
Q 2931 2084 2911 2256 
Q 2891 2428 2841 2509 
Q 2775 2619 2662 2680 
Q 2550 2741 2406 2741 
Q 2056 2741 1856 2470 
Q 1656 2200 1656 1722 
L 1656 0 
L 538 0 
L 538 3500 
L 1656 3500 
L 1656 2988 
Q 1909 3294 2193 3439 
Q 2478 3584 2822 3584 
Q 3428 3584 3742 3212 
Q 4056 2841 4056 2131 
z
" transform="scale(0.015625)"/>
      <path id="DejaVuSans-Bold-57" d="M 1759 4494 
L 1759 3500 
L 2913 3500 
L 2913 2700 
L 1759 2700 
L 1759 1216 
Q 1759 972 1856 886 
Q 1953 800 2241 800 
L 2816 800 
L 2816 0 
L 1856 0 
Q 1194 0 917 276 
Q 641 553 641 1216 
L 641 2700 
L 84 2700 
L 84 3500 
L 641 3500 
L 641 4494 
L 1759 4494 
z
" transform="scale(0.015625)"/>
      <path id="DejaVuSans-Bold-4b" d="M 4056 2131 
L 4056 0 
L 2931 0 
L 2931 347 
L 2931 1625 
Q 2931 2084 2911 2256 
Q 2891 2428 2841 2509 
Q 2775 2619 2662 2680 
Q 2550 2741 2406 2741 
Q 2056 2741 1856 2470 
Q 1656 2200 1656 1722 
L 1656 0 
L 538 0 
L 538 4863 
L 1656 4863 
L 1656 2988 
Q 1909 3294 2193 3439 
Q 2478 3584 2822 3584 
Q 3428 3584 3742 3212 
Q 4056 2841 4056 2131 
z
" transform="scale(0.015625)"/>
      <path id="DejaVuSans-Bold-2c" d="M 588 4666 
L 1791 4666 
L 1791 0 
L 588 0 
L 588 4666 
z
" transform="scale(0.015625)"/>
      <path id="DejaVuSans-Bold-44" d="M 2106 1575 
Q 1756 1575 1579 1456 
Q 1403 1338 1403 1106 
Q 1403 894 1545 773 
Q 1688 653 1941 653 
Q 2256 653 2472 879 
Q 2688 1106 2688 1447 
L 2688 1575 
L 2106 1575 
z
M 3816 1997 
L 3816 0 
L 2688 0 
L 2688 519 
Q 2463 200 2181 54 
Q 1900 -91 1497 -91 
Q 953 -91 614 226 
Q 275 544 275 1050 
Q 275 1666 698 1953 
Q 1122 2241 2028 2241 
L 2688 2241 
L 2688 2328 
Q 2688 2594 2478 2717 
Q 2269 2841 1825 2841 
Q 1466 2841 1156 2769 
Q 847 2697 581 2553 
L 581 3406 
Q 941 3494 1303 3539 
Q 1666 3584 2028 3584 
Q 2975 3584 3395 3211 
Q 3816 2838 3816 1997 
z
" transform="scale(0.015625)"/>
      <path id="DejaVuSans-Bold-45" d="M 2400 722 
Q 2759 722 2948 984 
Q 3138 1247 3138 1747 
Q 3138 2247 2948 2509 
Q 2759 2772 2400 2772 
Q 2041 2772 1848 2508 
Q 1656 2244 1656 1747 
Q 1656 1250 1848 986 
Q 2041 722 2400 722 
z
M 1656 2988 
Q 1888 3294 2169 3439 
Q 2450 3584 2816 3584 
Q 3463 3584 3878 3070 
Q 4294 2556 4294 1747 
Q 4294 938 3878 423 
Q 3463 -91 2816 -91 
Q 2450 -91 2169 54 
Q 1888 200 1656 506 
L 1656 0 
L 538 0 
L 538 4863 
L 1656 4863 
L 1656 2988 
z
" transform="scale(0.015625)"/>
      <path id="DejaVuSans-Bold-58" d="M 500 1363 
L 500 3500 
L 1625 3500 
L 1625 3150 
Q 1625 2866 1622 2436 
Q 1619 2006 1619 1863 
Q 1619 1441 1641 1255 
Q 1663 1069 1716 984 
Q 1784 875 1895 815 
Q 2006 756 2150 756 
Q 2500 756 2700 1025 
Q 2900 1294 2900 1772 
L 2900 3500 
L 4019 3500 
L 4019 0 
L 2900 0 
L 2900 506 
Q 2647 200 2364 54 
Q 2081 -91 1741 -91 
Q 1134 -91 817 281 
Q 500 653 500 1363 
z
" transform="scale(0.015625)"/>
      <path id="DejaVuSans-Bold-13ab" d="M 3078 4863 
L 4206 4863 
L 4206 3950 
L 3078 3950 
L 3078 4863 
z
M 2847 4863 
L 2847 4128 
L 2228 4128 
Q 1994 4128 1903 4042 
Q 1813 3956 1813 3744 
L 1813 3500 
L 4206 3500 
L 4206 0 
L 3078 0 
L 3078 2700 
L 1813 2700 
L 1813 0 
L 684 0 
L 684 2700 
L 134 2700 
L 134 3500 
L 684 3500 
L 684 3744 
Q 684 4316 1003 4589 
Q 1322 4863 1991 4863 
L 2847 4863 
z
" transform="scale(0.015625)"/>
      <path id="DejaVuSans-Bold-4f" d="M 538 4863 
L 1656 4863 
L 1656 0 
L 538 0 
L 538 4863 
z
" transform="scale(0.015625)"/>
      <path id="DejaVuSans-Bold-5d" d="M 366 3500 
L 3419 3500 
L 3419 2719 
L 1575 800 
L 3419 800 
L 3419 0 
L 288 0 
L 288 781 
L 2131 2700 
L 366 2700 
L 366 3500 
z
" transform="scale(0.015625)"/>
     </defs>
     <use xlink:href="#DejaVuSans-Bold-24"/>
     <use xlink:href="#DejaVuSans-Bold-3" transform="translate(77.390625 0)"/>
     <use xlink:href="#DejaVuSans-Bold-47" transform="translate(112.203125 0)"/>
     <use xlink:href="#DejaVuSans-Bold-48" transform="translate(183.78125 0)"/>
     <use xlink:href="#DejaVuSans-Bold-46" transform="translate(251.609375 0)"/>
     <use xlink:href="#DejaVuSans-Bold-4c" transform="translate(310.890625 0)"/>
     <use xlink:href="#DejaVuSans-Bold-56" transform="translate(345.171875 0)"/>
     <use xlink:href="#DejaVuSans-Bold-4c" transform="translate(404.6875 0)"/>
     <use xlink:href="#DejaVuSans-Bold-52" transform="translate(438.96875 0)"/>
     <use xlink:href="#DejaVuSans-Bold-51" transform="translate(507.671875 0)"/>
     <use xlink:href="#DejaVuSans-Bold-3" transform="translate(578.859375 0)"/>
     <use xlink:href="#DejaVuSans-Bold-57" transform="translate(613.671875 0)"/>
     <use xlink:href="#DejaVuSans-Bold-4b" transform="translate(661.46875 0)"/>
     <use xlink:href="#DejaVuSans-Bold-48" transform="translate(732.65625 0)"/>
     <use xlink:href="#DejaVuSans-Bold-3" transform="translate(800.484375 0)"/>
     <use xlink:href="#DejaVuSans-Bold-24" transform="translate(835.296875 0)"/>
     <use xlink:href="#DejaVuSans-Bold-2c" transform="translate(912.6875 0)"/>
     <use xlink:href="#DejaVuSans-Bold-3" transform="translate(949.890625 0)"/>
     <use xlink:href="#DejaVuSans-Bold-4c" transform="translate(984.703125 0)"/>
     <use xlink:href="#DejaVuSans-Bold-56" transform="translate(1018.984375 0)"/>
     <use xlink:href="#DejaVuSans-Bold-3" transform="translate(1078.5 0)"/>
     <use xlink:href="#DejaVuSans-Bold-44" transform="translate(1113.3125 0)"/>
     <use xlink:href="#DejaVuSans-Bold-45" transform="translate(1180.796875 0)"/>
     <use xlink:href="#DejaVuSans-Bold-52" transform="translate(1252.375 0)"/>
     <use xlink:href="#DejaVuSans-Bold-58" transform="translate(1321.078125 0)"/>
     <use xlink:href="#DejaVuSans-Bold-57" transform="translate(1392.265625 0)"/>
     <use xlink:href="#DejaVuSans-Bold-3" transform="translate(1440.0625 0)"/>
     <use xlink:href="#DejaVuSans-Bold-57" transform="translate(1474.875 0)"/>
     <use xlink:href="#DejaVuSans-Bold-52" transform="translate(1522.671875 0)"/>
     <use xlink:href="#DejaVuSans-Bold-3" transform="translate(1591.375 0)"/>
     <use xlink:href="#DejaVuSans-Bold-13ab" transform="translate(1626.1875 0)"/>
     <use xlink:href="#DejaVuSans-Bold-51" transform="translate(1700.3125 0)"/>
     <use xlink:href="#DejaVuSans-Bold-44" transform="translate(1771.5 0)"/>
     <use xlink:href="#DejaVuSans-Bold-4f" transform="translate(1838.984375 0)"/>
     <use xlink:href="#DejaVuSans-Bold-4c" transform="translate(1873.265625 0)"/>
     <use xlink:href="#DejaVuSans-Bold-5d" transform="translate(1907.546875 0)"/>
     <use xlink:href="#DejaVuSans-Bold-48" transform="translate(1965.75 0)"/>
    </g>
   </g>
   <g id="text_2">
    <!-- Did the model only check -->
    <g style="fill: #f4f1e8" transform="translate(129.634719 111.888348) scale(0.11 -0.11)">
     <defs>
      <path id="DejaVuSans-Bold-27" d="M 1791 3756 
L 1791 909 
L 2222 909 
Q 2959 909 3348 1275 
Q 3738 1641 3738 2338 
Q 3738 3031 3350 3393 
Q 2963 3756 2222 3756 
L 1791 3756 
z
M 588 4666 
L 1856 4666 
Q 2919 4666 3439 4514 
Q 3959 4363 4331 4000 
Q 4659 3684 4818 3271 
Q 4978 2859 4978 2338 
Q 4978 1809 4818 1395 
Q 4659 981 4331 666 
Q 3956 303 3431 151 
Q 2906 0 1856 0 
L 588 0 
L 588 4666 
z
" transform="scale(0.015625)"/>
      <path id="DejaVuSans-Bold-50" d="M 3781 2919 
Q 3994 3244 4286 3414 
Q 4578 3584 4928 3584 
Q 5531 3584 5847 3212 
Q 6163 2841 6163 2131 
L 6163 0 
L 5038 0 
L 5038 1825 
Q 5041 1866 5042 1909 
Q 5044 1953 5044 2034 
Q 5044 2406 4934 2573 
Q 4825 2741 4581 2741 
Q 4263 2741 4089 2478 
Q 3916 2216 3909 1719 
L 3909 0 
L 2784 0 
L 2784 1825 
Q 2784 2406 2684 2573 
Q 2584 2741 2328 2741 
Q 2006 2741 1831 2477 
Q 1656 2213 1656 1722 
L 1656 0 
L 531 0 
L 531 3500 
L 1656 3500 
L 1656 2988 
Q 1863 3284 2130 3434 
Q 2397 3584 2719 3584 
Q 3081 3584 3359 3409 
Q 3638 3234 3781 2919 
z
" transform="scale(0.015625)"/>
      <path id="DejaVuSans-Bold-5c" d="M 78 3500 
L 1197 3500 
L 2138 1125 
L 2938 3500 
L 4056 3500 
L 2584 -331 
Q 2363 -916 2067 -1148 
Q 1772 -1381 1288 -1381 
L 641 -1381 
L 641 -647 
L 991 -647 
Q 1275 -647 1404 -556 
Q 1534 -466 1606 -231 
L 1638 -134 
L 78 3500 
z
" transform="scale(0.015625)"/>
      <path id="DejaVuSans-Bold-4e" d="M 538 4863 
L 1656 4863 
L 1656 2216 
L 2944 3500 
L 4244 3500 
L 2534 1894 
L 4378 0 
L 3022 0 
L 1656 1459 
L 1656 0 
L 538 0 
L 538 4863 
z
" transform="scale(0.015625)"/>
     </defs>
     <use xlink:href="#DejaVuSans-Bold-27"/>
     <use xlink:href="#DejaVuSans-Bold-4c" transform="translate(83.015625 0)"/>
     <use xlink:href="#DejaVuSans-Bold-47" transform="translate(117.296875 0)"/>
     <use xlink:href="#DejaVuSans-Bold-3" transform="translate(188.875 0)"/>
     <use xlink:href="#DejaVuSans-Bold-57" transform="translate(223.6875 0)"/>
     <use xlink:href="#DejaVuSans-Bold-4b" transform="translate(271.484375 0)"/>
     <use xlink:href="#DejaVuSans-Bold-48" transform="translate(342.671875 0)"/>
     <use xlink:href="#DejaVuSans-Bold-3" transform="translate(410.5 0)"/>
     <use xlink:href="#DejaVuSans-Bold-50" transform="translate(445.3125 0)"/>
     <use xlink:href="#DejaVuSans-Bold-52" transform="translate(549.515625 0)"/>
     <use xlink:href="#DejaVuSans-Bold-47" transform="translate(618.21875 0)"/>
     <use xlink:href="#DejaVuSans-Bold-48" transform="translate(689.796875 0)"/>
     <use xlink:href="#DejaVuSans-Bold-4f" transform="translate(757.625 0)"/>
     <use xlink:href="#DejaVuSans-Bold-3" transform="translate(791.90625 0)"/>
     <use xlink:href="#DejaVuSans-Bold-52" transform="translate(826.71875 0)"/>
     <use xlink:href="#DejaVuSans-Bold-51" transform="translate(895.421875 0)"/>
     <use xlink:href="#DejaVuSans-Bold-4f" transform="translate(966.609375 0)"/>
     <use xlink:href="#DejaVuSans-Bold-5c" transform="translate(1000.890625 0)"/>
     <use xlink:href="#DejaVuSans-Bold-3" transform="translate(1066.078125 0)"/>
     <use xlink:href="#DejaVuSans-Bold-46" transform="translate(1100.890625 0)"/>
     <use xlink:href="#DejaVuSans-Bold-4b" transform="translate(1160.171875 0)"/>
     <use xlink:href="#DejaVuSans-Bold-48" transform="translate(1231.359375 0)"/>
     <use xlink:href="#DejaVuSans-Bold-46" transform="translate(1299.1875 0)"/>
     <use xlink:href="#DejaVuSans-Bold-4e" transform="translate(1358.46875 0)"/>
    </g>
    <!-- its OWN work? -->
    <g style="fill: #f4f1e8" transform="translate(162.625266 125.091355) scale(0.11 -0.11)">
     <defs>
      <path id="DejaVuSans-Bold-32" d="M 2719 3878 
Q 2169 3878 1866 3472 
Q 1563 3066 1563 2328 
Q 1563 1594 1866 1187 
Q 2169 781 2719 781 
Q 3272 781 3575 1187 
Q 3878 1594 3878 2328 
Q 3878 3066 3575 3472 
Q 3272 3878 2719 3878 
z
M 2719 4750 
Q 3844 4750 4481 4106 
Q 5119 3463 5119 2328 
Q 5119 1197 4481 553 
Q 3844 -91 2719 -91 
Q 1597 -91 958 553 
Q 319 1197 319 2328 
Q 319 3463 958 4106 
Q 1597 4750 2719 4750 
z
" transform="scale(0.015625)"/>
      <path id="DejaVuSans-Bold-3a" d="M 191 4666 
L 1344 4666 
L 2150 1275 
L 2950 4666 
L 4109 4666 
L 4909 1275 
L 5716 4666 
L 6859 4666 
L 5759 0 
L 4372 0 
L 3525 3547 
L 2688 0 
L 1300 0 
L 191 4666 
z
" transform="scale(0.015625)"/>
      <path id="DejaVuSans-Bold-31" d="M 588 4666 
L 1931 4666 
L 3628 1466 
L 3628 4666 
L 4769 4666 
L 4769 0 
L 3425 0 
L 1728 3200 
L 1728 0 
L 588 0 
L 588 4666 
z
" transform="scale(0.015625)"/>
      <path id="DejaVuSans-Bold-5a" d="M 225 3500 
L 1313 3500 
L 1900 1088 
L 2491 3500 
L 3425 3500 
L 4013 1113 
L 4603 3500 
L 5691 3500 
L 4769 0 
L 3547 0 
L 2956 2406 
L 2369 0 
L 1147 0 
L 225 3500 
z
" transform="scale(0.015625)"/>
      <path id="DejaVuSans-Bold-55" d="M 3138 2547 
Q 2991 2616 2845 2648 
Q 2700 2681 2553 2681 
Q 2122 2681 1889 2404 
Q 1656 2128 1656 1613 
L 1656 0 
L 538 0 
L 538 3500 
L 1656 3500 
L 1656 2925 
Q 1872 3269 2151 3426 
Q 2431 3584 2822 3584 
Q 2878 3584 2943 3579 
Q 3009 3575 3134 3559 
L 3138 2547 
z
" transform="scale(0.015625)"/>
      <path id="DejaVuSans-Bold-22" d="M 2216 1575 
L 1088 1575 
L 1088 1728 
Q 1088 1984 1191 2182 
Q 1294 2381 1625 2688 
L 1825 2869 
Q 2003 3031 2086 3175 
Q 2169 3319 2169 3463 
Q 2169 3681 2019 3804 
Q 1869 3928 1600 3928 
Q 1347 3928 1053 3823 
Q 759 3719 441 3513 
L 441 4494 
Q 819 4625 1131 4687 
Q 1444 4750 1734 4750 
Q 2497 4750 2897 4439 
Q 3297 4128 3297 3531 
Q 3297 3225 3175 2983 
Q 3053 2741 2759 2463 
L 2559 2284 
Q 2347 2091 2281 1973 
Q 2216 1856 2216 1716 
L 2216 1575 
z
M 1088 1113 
L 2216 1113 
L 2216 0 
L 1088 0 
L 1088 1113 
z
" transform="scale(0.015625)"/>
     </defs>
     <use xlink:href="#DejaVuSans-Bold-4c"/>
     <use xlink:href="#DejaVuSans-Bold-57" transform="translate(34.28125 0)"/>
     <use xlink:href="#DejaVuSans-Bold-56" transform="translate(82.078125 0)"/>
     <use xlink:href="#DejaVuSans-Bold-3" transform="translate(141.59375 0)"/>
     <use xlink:href="#DejaVuSans-Bold-32" transform="translate(176.40625 0)"/>
     <use xlink:href="#DejaVuSans-Bold-3a" transform="translate(261.421875 0)"/>
     <use xlink:href="#DejaVuSans-Bold-31" transform="translate(371.71875 0)"/>
     <use xlink:href="#DejaVuSans-Bold-3" transform="translate(455.40625 0)"/>
     <use xlink:href="#DejaVuSans-Bold-5a" transform="translate(490.21875 0)"/>
     <use xlink:href="#DejaVuSans-Bold-52" transform="translate(582.609375 0)"/>
     <use xlink:href="#DejaVuSans-Bold-55" transform="translate(651.3125 0)"/>
     <use xlink:href="#DejaVuSans-Bold-4e" transform="translate(700.625 0)"/>
     <use xlink:href="#DejaVuSans-Bold-22" transform="translate(767.125 0)"/>
    </g>
   </g>
   <g id="text_3">
    <!-- Is it a hard, right-or-wrong -->
    <g style="fill: #f4f1e8" transform="translate(124.879797 223.272348) scale(0.11 -0.11)">
     <defs>
      <path id="DejaVuSans-Bold-f" d="M 653 1209 
L 1778 1209 
L 1778 256 
L 1006 -909 
L 341 -909 
L 653 256 
L 653 1209 
z
" transform="scale(0.015625)"/>
      <path id="DejaVuSans-Bold-4a" d="M 2919 594 
Q 2688 288 2409 144 
Q 2131 0 1766 0 
Q 1125 0 706 504 
Q 288 1009 288 1791 
Q 288 2575 706 3076 
Q 1125 3578 1766 3578 
Q 2131 3578 2409 3434 
Q 2688 3291 2919 2981 
L 2919 3500 
L 4044 3500 
L 4044 353 
Q 4044 -491 3511 -936 
Q 2978 -1381 1966 -1381 
Q 1638 -1381 1331 -1331 
Q 1025 -1281 716 -1178 
L 716 -306 
Q 1009 -475 1290 -558 
Q 1572 -641 1856 -641 
Q 2406 -641 2662 -400 
Q 2919 -159 2919 353 
L 2919 594 
z
M 2181 2772 
Q 1834 2772 1640 2515 
Q 1447 2259 1447 1791 
Q 1447 1309 1634 1061 
Q 1822 813 2181 813 
Q 2531 813 2725 1069 
Q 2919 1325 2919 1791 
Q 2919 2259 2725 2515 
Q 2531 2772 2181 2772 
z
" transform="scale(0.015625)"/>
      <path id="DejaVuSans-Bold-10" d="M 347 2297 
L 2309 2297 
L 2309 1388 
L 347 1388 
L 347 2297 
z
" transform="scale(0.015625)"/>
     </defs>
     <use xlink:href="#DejaVuSans-Bold-2c"/>
     <use xlink:href="#DejaVuSans-Bold-56" transform="translate(37.203125 0)"/>
     <use xlink:href="#DejaVuSans-Bold-3" transform="translate(96.71875 0)"/>
     <use xlink:href="#DejaVuSans-Bold-4c" transform="translate(131.53125 0)"/>
     <use xlink:href="#DejaVuSans-Bold-57" transform="translate(165.8125 0)"/>
     <use xlink:href="#DejaVuSans-Bold-3" transform="translate(213.609375 0)"/>
     <use xlink:href="#DejaVuSans-Bold-44" transform="translate(248.421875 0)"/>
     <use xlink:href="#DejaVuSans-Bold-3" transform="translate(315.90625 0)"/>
     <use xlink:href="#DejaVuSans-Bold-4b" transform="translate(350.71875 0)"/>
     <use xlink:href="#DejaVuSans-Bold-44" transform="translate(421.90625 0)"/>
     <use xlink:href="#DejaVuSans-Bold-55" transform="translate(489.390625 0)"/>
     <use xlink:href="#DejaVuSans-Bold-47" transform="translate(538.703125 0)"/>
     <use xlink:href="#DejaVuSans-Bold-f" transform="translate(610.28125 0)"/>
     <use xlink:href="#DejaVuSans-Bold-3" transform="translate(648.265625 0)"/>
     <use xlink:href="#DejaVuSans-Bold-55" transform="translate(683.078125 0)"/>
     <use xlink:href="#DejaVuSans-Bold-4c" transform="translate(732.390625 0)"/>
     <use xlink:href="#DejaVuSans-Bold-4a" transform="translate(766.671875 0)"/>
     <use xlink:href="#DejaVuSans-Bold-4b" transform="translate(838.25 0)"/>
     <use xlink:href="#DejaVuSans-Bold-57" transform="translate(909.4375 0)"/>
     <use xlink:href="#DejaVuSans-Bold-10" transform="translate(957.234375 0)"/>
     <use xlink:href="#DejaVuSans-Bold-52" transform="translate(998.734375 0)"/>
     <use xlink:href="#DejaVuSans-Bold-55" transform="translate(1067.4375 0)"/>
     <use xlink:href="#DejaVuSans-Bold-10" transform="translate(1116.75 0)"/>
     <use xlink:href="#DejaVuSans-Bold-5a" transform="translate(1158.25 0)"/>
     <use xlink:href="#DejaVuSans-Bold-55" transform="translate(1250.640625 0)"/>
     <use xlink:href="#DejaVuSans-Bold-52" transform="translate(1299.953125 0)"/>
     <use xlink:href="#DejaVuSans-Bold-51" transform="translate(1368.65625 0)"/>
     <use xlink:href="#DejaVuSans-Bold-4a" transform="translate(1439.84375 0)"/>
    </g>
    <!-- call (not open-ended writing)? -->
    <g style="fill: #f4f1e8" transform="translate(114.0405 236.475355) scale(0.11 -0.11)">
     <defs>
      <path id="DejaVuSans-Bold-b" d="M 2413 -844 
L 1484 -844 
Q 1006 -72 778 623 
Q 550 1319 550 2003 
Q 550 2688 779 3389 
Q 1009 4091 1484 4856 
L 2413 4856 
Q 2013 4116 1813 3408 
Q 1613 2700 1613 2009 
Q 1613 1319 1811 609 
Q 2009 -100 2413 -844 
z
" transform="scale(0.015625)"/>
      <path id="DejaVuSans-Bold-53" d="M 1656 506 
L 1656 -1331 
L 538 -1331 
L 538 3500 
L 1656 3500 
L 1656 2988 
Q 1888 3294 2169 3439 
Q 2450 3584 2816 3584 
Q 3463 3584 3878 3070 
Q 4294 2556 4294 1747 
Q 4294 938 3878 423 
Q 3463 -91 2816 -91 
Q 2450 -91 2169 54 
Q 1888 200 1656 506 
z
M 2400 2772 
Q 2041 2772 1848 2508 
Q 1656 2244 1656 1747 
Q 1656 1250 1848 986 
Q 2041 722 2400 722 
Q 2759 722 2948 984 
Q 3138 1247 3138 1747 
Q 3138 2247 2948 2509 
Q 2759 2772 2400 2772 
z
" transform="scale(0.015625)"/>
      <path id="DejaVuSans-Bold-c" d="M 513 -844 
Q 913 -100 1113 609 
Q 1313 1319 1313 2009 
Q 1313 2700 1113 3408 
Q 913 4116 513 4856 
L 1441 4856 
Q 1916 4091 2145 3389 
Q 2375 2688 2375 2003 
Q 2375 1319 2147 623 
Q 1919 -72 1441 -844 
L 513 -844 
z
" transform="scale(0.015625)"/>
     </defs>
     <use xlink:href="#DejaVuSans-Bold-46"/>
     <use xlink:href="#DejaVuSans-Bold-44" transform="translate(59.28125 0)"/>
     <use xlink:href="#DejaVuSans-Bold-4f" transform="translate(126.765625 0)"/>
     <use xlink:href="#DejaVuSans-Bold-4f" transform="translate(161.046875 0)"/>
     <use xlink:href="#DejaVuSans-Bold-3" transform="translate(195.328125 0)"/>
     <use xlink:href="#DejaVuSans-Bold-b" transform="translate(230.140625 0)"/>
     <use xlink:href="#DejaVuSans-Bold-51" transform="translate(275.84375 0)"/>
     <use xlink:href="#DejaVuSans-Bold-52" transform="translate(347.03125 0)"/>
     <use xlink:href="#DejaVuSans-Bold-57" transform="translate(415.734375 0)"/>
     <use xlink:href="#DejaVuSans-Bold-3" transform="translate(463.53125 0)"/>
     <use xlink:href="#DejaVuSans-Bold-52" transform="translate(498.34375 0)"/>
     <use xlink:href="#DejaVuSans-Bold-53" transform="translate(567.046875 0)"/>
     <use xlink:href="#DejaVuSans-Bold-48" transform="translate(638.625 0)"/>
     <use xlink:href="#DejaVuSans-Bold-51" transform="translate(706.453125 0)"/>
     <use xlink:href="#DejaVuSans-Bold-10" transform="translate(777.640625 0)"/>
     <use xlink:href="#DejaVuSans-Bold-48" transform="translate(819.140625 0)"/>
     <use xlink:href="#DejaVuSans-Bold-51" transform="translate(886.96875 0)"/>
     <use xlink:href="#DejaVuSans-Bold-47" transform="translate(958.15625 0)"/>
     <use xlink:href="#DejaVuSans-Bold-48" transform="translate(1029.734375 0)"/>
     <use xlink:href="#DejaVuSans-Bold-47" transform="translate(1097.5625 0)"/>
     <use xlink:href="#DejaVuSans-Bold-3" transform="translate(1169.140625 0)"/>
     <use xlink:href="#DejaVuSans-Bold-5a" transform="translate(1203.953125 0)"/>
     <use xlink:href="#DejaVuSans-Bold-55" transform="translate(1296.34375 0)"/>
     <use xlink:href="#DejaVuSans-Bold-4c" transform="translate(1345.65625 0)"/>
     <use xlink:href="#DejaVuSans-Bold-57" transform="translate(1379.9375 0)"/>
     <use xlink:href="#DejaVuSans-Bold-4c" transform="translate(1427.734375 0)"/>
     <use xlink:href="#DejaVuSans-Bold-51" transform="translate(1462.015625 0)"/>
     <use xlink:href="#DejaVuSans-Bold-4a" transform="translate(1533.203125 0)"/>
     <use xlink:href="#DejaVuSans-Bold-c" transform="translate(1604.78125 0)"/>
     <use xlink:href="#DejaVuSans-Bold-22" transform="translate(1650.484375 0)"/>
    </g>
   </g>
   <g id="text_4">
    <!-- Is it high-stakes: -->
    <g style="fill: #f4f1e8" transform="translate(156.082844 334.656348) scale(0.11 -0.11)">
     <defs>
      <path id="DejaVuSans-Bold-1d" d="M 716 3500 
L 1844 3500 
L 1844 2291 
L 716 2291 
L 716 3500 
z
M 716 1209 
L 1844 1209 
L 1844 0 
L 716 0 
L 716 1209 
z
" transform="scale(0.015625)"/>
     </defs>
     <use xlink:href="#DejaVuSans-Bold-2c"/>
     <use xlink:href="#DejaVuSans-Bold-56" transform="translate(37.203125 0)"/>
     <use xlink:href="#DejaVuSans-Bold-3" transform="translate(96.71875 0)"/>
     <use xlink:href="#DejaVuSans-Bold-4c" transform="translate(131.53125 0)"/>
     <use xlink:href="#DejaVuSans-Bold-57" transform="translate(165.8125 0)"/>
     <use xlink:href="#DejaVuSans-Bold-3" transform="translate(213.609375 0)"/>
     <use xlink:href="#DejaVuSans-Bold-4b" transform="translate(248.421875 0)"/>
     <use xlink:href="#DejaVuSans-Bold-4c" transform="translate(319.609375 0)"/>
     <use xlink:href="#DejaVuSans-Bold-4a" transform="translate(353.890625 0)"/>
     <use xlink:href="#DejaVuSans-Bold-4b" transform="translate(425.46875 0)"/>
     <use xlink:href="#DejaVuSans-Bold-10" transform="translate(496.65625 0)"/>
     <use xlink:href="#DejaVuSans-Bold-56" transform="translate(538.15625 0)"/>
     <use xlink:href="#DejaVuSans-Bold-57" transform="translate(597.671875 0)"/>
     <use xlink:href="#DejaVuSans-Bold-44" transform="translate(645.46875 0)"/>
     <use xlink:href="#DejaVuSans-Bold-4e" transform="translate(712.953125 0)"/>
     <use xlink:href="#DejaVuSans-Bold-48" transform="translate(776.765625 0)"/>
     <use xlink:href="#DejaVuSans-Bold-56" transform="translate(844.59375 0)"/>
     <use xlink:href="#DejaVuSans-Bold-1d" transform="translate(904.109375 0)"/>
    </g>
    <!-- costly and hard to undo? -->
    <g style="fill: #f4f1e8" transform="translate(130.953 347.859355) scale(0.11 -0.11)">
     <use xlink:href="#DejaVuSans-Bold-46"/>
     <use xlink:href="#DejaVuSans-Bold-52" transform="translate(59.28125 0)"/>
     <use xlink:href="#DejaVuSans-Bold-56" transform="translate(127.984375 0)"/>
     <use xlink:href="#DejaVuSans-Bold-57" transform="translate(187.5 0)"/>
     <use xlink:href="#DejaVuSans-Bold-4f" transform="translate(235.296875 0)"/>
     <use xlink:href="#DejaVuSans-Bold-5c" transform="translate(269.578125 0)"/>
     <use xlink:href="#DejaVuSans-Bold-3" transform="translate(334.765625 0)"/>
     <use xlink:href="#DejaVuSans-Bold-44" transform="translate(369.578125 0)"/>
     <use xlink:href="#DejaVuSans-Bold-51" transform="translate(437.0625 0)"/>
     <use xlink:href="#DejaVuSans-Bold-47" transform="translate(508.25 0)"/>
     <use xlink:href="#DejaVuSans-Bold-3" transform="translate(579.828125 0)"/>
     <use xlink:href="#DejaVuSans-Bold-4b" transform="translate(614.640625 0)"/>
     <use xlink:href="#DejaVuSans-Bold-44" transform="translate(685.828125 0)"/>
     <use xlink:href="#DejaVuSans-Bold-55" transform="translate(753.3125 0)"/>
     <use xlink:href="#DejaVuSans-Bold-47" transform="translate(802.625 0)"/>
     <use xlink:href="#DejaVuSans-Bold-3" transform="translate(874.203125 0)"/>
     <use xlink:href="#DejaVuSans-Bold-57" transform="translate(909.015625 0)"/>
     <use xlink:href="#DejaVuSans-Bold-52" transform="translate(956.8125 0)"/>
     <use xlink:href="#DejaVuSans-Bold-3" transform="translate(1025.515625 0)"/>
     <use xlink:href="#DejaVuSans-Bold-58" transform="translate(1060.328125 0)"/>
     <use xlink:href="#DejaVuSans-Bold-51" transform="translate(1131.515625 0)"/>
     <use xlink:href="#DejaVuSans-Bold-47" transform="translate(1202.703125 0)"/>
     <use xlink:href="#DejaVuSans-Bold-52" transform="translate(1274.28125 0)"/>
     <use xlink:href="#DejaVuSans-Bold-22" transform="translate(1342.984375 0)"/>
    </g>
   </g>
   <g id="text_5">
    <!-- Can an independent -->
    <g style="fill: #f4f1e8" transform="translate(145.625969 446.040348) scale(0.11 -0.11)">
     <defs>
      <path id="DejaVuSans-Bold-26" d="M 4288 256 
Q 3956 84 3597 -3 
Q 3238 -91 2847 -91 
Q 1681 -91 1000 561 
Q 319 1213 319 2328 
Q 319 3447 1000 4098 
Q 1681 4750 2847 4750 
Q 3238 4750 3597 4662 
Q 3956 4575 4288 4403 
L 4288 3438 
Q 3953 3666 3628 3772 
Q 3303 3878 2944 3878 
Q 2300 3878 1931 3465 
Q 1563 3053 1563 2328 
Q 1563 1606 1931 1193 
Q 2300 781 2944 781 
Q 3303 781 3628 887 
Q 3953 994 4288 1222 
L 4288 256 
z
" transform="scale(0.015625)"/>
     </defs>
     <use xlink:href="#DejaVuSans-Bold-26"/>
     <use xlink:href="#DejaVuSans-Bold-44" transform="translate(73.390625 0)"/>
     <use xlink:href="#DejaVuSans-Bold-51" transform="translate(140.875 0)"/>
     <use xlink:href="#DejaVuSans-Bold-3" transform="translate(212.0625 0)"/>
     <use xlink:href="#DejaVuSans-Bold-44" transform="translate(246.875 0)"/>
     <use xlink:href="#DejaVuSans-Bold-51" transform="translate(314.359375 0)"/>
     <use xlink:href="#DejaVuSans-Bold-3" transform="translate(385.546875 0)"/>
     <use xlink:href="#DejaVuSans-Bold-4c" transform="translate(420.359375 0)"/>
     <use xlink:href="#DejaVuSans-Bold-51" transform="translate(454.640625 0)"/>
     <use xlink:href="#DejaVuSans-Bold-47" transform="translate(525.828125 0)"/>
     <use xlink:href="#DejaVuSans-Bold-48" transform="translate(597.40625 0)"/>
     <use xlink:href="#DejaVuSans-Bold-53" transform="translate(665.234375 0)"/>
     <use xlink:href="#DejaVuSans-Bold-48" transform="translate(736.8125 0)"/>
     <use xlink:href="#DejaVuSans-Bold-51" transform="translate(804.640625 0)"/>
     <use xlink:href="#DejaVuSans-Bold-47" transform="translate(875.828125 0)"/>
     <use xlink:href="#DejaVuSans-Bold-48" transform="translate(947.40625 0)"/>
     <use xlink:href="#DejaVuSans-Bold-51" transform="translate(1015.234375 0)"/>
     <use xlink:href="#DejaVuSans-Bold-57" transform="translate(1086.421875 0)"/>
    </g>
    <!-- check be added? -->
    <g style="fill: #f4f1e8" transform="translate(156.243547 459.243355) scale(0.11 -0.11)">
     <use xlink:href="#DejaVuSans-Bold-46"/>
     <use xlink:href="#DejaVuSans-Bold-4b" transform="translate(59.28125 0)"/>
     <use xlink:href="#DejaVuSans-Bold-48" transform="translate(130.46875 0)"/>
     <use xlink:href="#DejaVuSans-Bold-46" transform="translate(198.296875 0)"/>
     <use xlink:href="#DejaVuSans-Bold-4e" transform="translate(257.578125 0)"/>
     <use xlink:href="#DejaVuSans-Bold-3" transform="translate(324.078125 0)"/>
     <use xlink:href="#DejaVuSans-Bold-45" transform="translate(358.890625 0)"/>
     <use xlink:href="#DejaVuSans-Bold-48" transform="translate(430.46875 0)"/>
     <use xlink:href="#DejaVuSans-Bold-3" transform="translate(498.296875 0)"/>
     <use xlink:href="#DejaVuSans-Bold-44" transform="translate(533.109375 0)"/>
     <use xlink:href="#DejaVuSans-Bold-47" transform="translate(600.59375 0)"/>
     <use xlink:href="#DejaVuSans-Bold-47" transform="translate(672.171875 0)"/>
     <use xlink:href="#DejaVuSans-Bold-48" transform="translate(743.75 0)"/>
     <use xlink:href="#DejaVuSans-Bold-47" transform="translate(811.578125 0)"/>
     <use xlink:href="#DejaVuSans-Bold-22" transform="translate(883.15625 0)"/>
    </g>
   </g>
   <g id="text_6">
    <!-- YES -->
    <g style="fill: #0f0e0b" transform="translate(197.371281 166.059256) scale(0.1 -0.1)">
     <defs>
      <path id="DejaVuSans-Bold-3c" d="M -63 4666 
L 1253 4666 
L 2316 3003 
L 3378 4666 
L 4697 4666 
L 2919 1966 
L 2919 0 
L 1716 0 
L 1716 1966 
L -63 4666 
z
" transform="scale(0.015625)"/>
      <path id="DejaVuSans-Bold-28" d="M 588 4666 
L 3834 4666 
L 3834 3756 
L 1791 3756 
L 1791 2888 
L 3713 2888 
L 3713 1978 
L 1791 1978 
L 1791 909 
L 3903 909 
L 3903 0 
L 588 0 
L 588 4666 
z
" transform="scale(0.015625)"/>
      <path id="DejaVuSans-Bold-36" d="M 3834 4519 
L 3834 3531 
Q 3450 3703 3084 3790 
Q 2719 3878 2394 3878 
Q 1963 3878 1756 3759 
Q 1550 3641 1550 3391 
Q 1550 3203 1689 3098 
Q 1828 2994 2194 2919 
L 2706 2816 
Q 3484 2659 3812 2340 
Q 4141 2022 4141 1434 
Q 4141 663 3683 286 
Q 3225 -91 2284 -91 
Q 1841 -91 1394 -6 
Q 947 78 500 244 
L 500 1259 
Q 947 1022 1364 901 
Q 1781 781 2169 781 
Q 2563 781 2772 912 
Q 2981 1044 2981 1288 
Q 2981 1506 2839 1625 
Q 2697 1744 2272 1838 
L 1806 1941 
Q 1106 2091 782 2419 
Q 459 2747 459 3303 
Q 459 4000 909 4375 
Q 1359 4750 2203 4750 
Q 2588 4750 2994 4692 
Q 3400 4634 3834 4519 
z
" transform="scale(0.015625)"/>
     </defs>
     <use xlink:href="#DejaVuSans-Bold-3c"/>
     <use xlink:href="#DejaVuSans-Bold-28" transform="translate(72.40625 0)"/>
     <use xlink:href="#DejaVuSans-Bold-36" transform="translate(140.71875 0)"/>
    </g>
   </g>
   <g id="text_7">
    <!-- YES -->
    <g style="fill: #0f0e0b" transform="translate(197.371281 277.443256) scale(0.1 -0.1)">
     <use xlink:href="#DejaVuSans-Bold-3c"/>
     <use xlink:href="#DejaVuSans-Bold-28" transform="translate(72.40625 0)"/>
     <use xlink:href="#DejaVuSans-Bold-36" transform="translate(140.71875 0)"/>
    </g>
   </g>
   <g id="text_8">
    <!-- YES -->
    <g style="fill: #0f0e0b" transform="translate(197.371281 388.827256) scale(0.1 -0.1)">
     <use xlink:href="#DejaVuSans-Bold-3c"/>
     <use xlink:href="#DejaVuSans-Bold-28" transform="translate(72.40625 0)"/>
     <use xlink:href="#DejaVuSans-Bold-36" transform="translate(140.71875 0)"/>
    </g>
   </g>
   <g id="text_9">
    <!-- NO -->
    <g style="fill: #0f0e0b" transform="translate(369.888844 110.367256) scale(0.1 -0.1)">
     <use xlink:href="#DejaVuSans-Bold-31"/>
     <use xlink:href="#DejaVuSans-Bold-32" transform="translate(83.6875 0)"/>
    </g>
   </g>
   <g id="text_10">
    <!-- ALLOW -->
    <g style="fill: #0f0e0b" transform="translate(457.099094 106.226922) scale(0.1 -0.1)">
     <defs>
      <path id="DejaVuSans-Bold-2f" d="M 588 4666 
L 1791 4666 
L 1791 909 
L 3903 909 
L 3903 0 
L 588 0 
L 588 4666 
z
" transform="scale(0.015625)"/>
     </defs>
     <use xlink:href="#DejaVuSans-Bold-24"/>
     <use xlink:href="#DejaVuSans-Bold-2f" transform="translate(77.390625 0)"/>
     <use xlink:href="#DejaVuSans-Bold-2f" transform="translate(141.109375 0)"/>
     <use xlink:href="#DejaVuSans-Bold-32" transform="translate(201.265625 0)"/>
     <use xlink:href="#DejaVuSans-Bold-3a" transform="translate(286.28125 0)"/>
    </g>
    <!-- someone else already -->
    <g style="fill: #0f0e0b" transform="translate(415.417844 118.229656) scale(0.1 -0.1)">
     <use xlink:href="#DejaVuSans-Bold-56"/>
     <use xlink:href="#DejaVuSans-Bold-52" transform="translate(59.515625 0)"/>
     <use xlink:href="#DejaVuSans-Bold-50" transform="translate(128.21875 0)"/>
     <use xlink:href="#DejaVuSans-Bold-48" transform="translate(232.421875 0)"/>
     <use xlink:href="#DejaVuSans-Bold-52" transform="translate(300.25 0)"/>
     <use xlink:href="#DejaVuSans-Bold-51" transform="translate(368.953125 0)"/>
     <use xlink:href="#DejaVuSans-Bold-48" transform="translate(440.140625 0)"/>
     <use xlink:href="#DejaVuSans-Bold-3" transform="translate(507.96875 0)"/>
     <use xlink:href="#DejaVuSans-Bold-48" transform="translate(542.78125 0)"/>
     <use xlink:href="#DejaVuSans-Bold-4f" transform="translate(610.609375 0)"/>
     <use xlink:href="#DejaVuSans-Bold-56" transform="translate(644.890625 0)"/>
     <use xlink:href="#DejaVuSans-Bold-48" transform="translate(704.40625 0)"/>
     <use xlink:href="#DejaVuSans-Bold-3" transform="translate(772.234375 0)"/>
     <use xlink:href="#DejaVuSans-Bold-44" transform="translate(807.046875 0)"/>
     <use xlink:href="#DejaVuSans-Bold-4f" transform="translate(874.53125 0)"/>
     <use xlink:href="#DejaVuSans-Bold-55" transform="translate(908.8125 0)"/>
     <use xlink:href="#DejaVuSans-Bold-48" transform="translate(958.125 0)"/>
     <use xlink:href="#DejaVuSans-Bold-44" transform="translate(1025.953125 0)"/>
     <use xlink:href="#DejaVuSans-Bold-47" transform="translate(1093.4375 0)"/>
     <use xlink:href="#DejaVuSans-Bold-5c" transform="translate(1165.015625 0)"/>
    </g>
    <!-- checked it -->
    <g style="fill: #0f0e0b" transform="translate(448.043625 130.232391) scale(0.1 -0.1)">
     <use xlink:href="#DejaVuSans-Bold-46"/>
     <use xlink:href="#DejaVuSans-Bold-4b" transform="translate(59.28125 0)"/>
     <use xlink:href="#DejaVuSans-Bold-48" transform="translate(130.46875 0)"/>
     <use xlink:href="#DejaVuSans-Bold-46" transform="translate(198.296875 0)"/>
     <use xlink:href="#DejaVuSans-Bold-4e" transform="translate(257.578125 0)"/>
     <use xlink:href="#DejaVuSans-Bold-48" transform="translate(321.390625 0)"/>
     <use xlink:href="#DejaVuSans-Bold-47" transform="translate(389.21875 0)"/>
     <use xlink:href="#DejaVuSans-Bold-3" transform="translate(460.796875 0)"/>
     <use xlink:href="#DejaVuSans-Bold-4c" transform="translate(495.609375 0)"/>
     <use xlink:href="#DejaVuSans-Bold-57" transform="translate(529.890625 0)"/>
    </g>
   </g>
   <g id="text_11">
    <!-- NO -->
    <g style="fill: #0f0e0b" transform="translate(369.888844 221.751256) scale(0.1 -0.1)">
     <use xlink:href="#DejaVuSans-Bold-31"/>
     <use xlink:href="#DejaVuSans-Bold-32" transform="translate(83.6875 0)"/>
    </g>
   </g>
   <g id="text_12">
    <!-- ALLOW -->
    <g style="fill: #0f0e0b" transform="translate(457.099094 217.610922) scale(0.1 -0.1)">
     <use xlink:href="#DejaVuSans-Bold-24"/>
     <use xlink:href="#DejaVuSans-Bold-2f" transform="translate(77.390625 0)"/>
     <use xlink:href="#DejaVuSans-Bold-2f" transform="translate(141.109375 0)"/>
     <use xlink:href="#DejaVuSans-Bold-32" transform="translate(201.265625 0)"/>
     <use xlink:href="#DejaVuSans-Bold-3a" transform="translate(286.28125 0)"/>
    </g>
    <!-- open-ended work, -->
    <g style="fill: #0f0e0b" transform="translate(425.903 229.613656) scale(0.1 -0.1)">
     <use xlink:href="#DejaVuSans-Bold-52"/>
     <use xlink:href="#DejaVuSans-Bold-53" transform="translate(68.703125 0)"/>
     <use xlink:href="#DejaVuSans-Bold-48" transform="translate(140.28125 0)"/>
     <use xlink:href="#DejaVuSans-Bold-51" transform="translate(208.109375 0)"/>
     <use xlink:href="#DejaVuSans-Bold-10" transform="translate(279.296875 0)"/>
     <use xlink:href="#DejaVuSans-Bold-48" transform="translate(320.796875 0)"/>
     <use xlink:href="#DejaVuSans-Bold-51" transform="translate(388.625 0)"/>
     <use xlink:href="#DejaVuSans-Bold-47" transform="translate(459.8125 0)"/>
     <use xlink:href="#DejaVuSans-Bold-48" transform="translate(531.390625 0)"/>
     <use xlink:href="#DejaVuSans-Bold-47" transform="translate(599.21875 0)"/>
     <use xlink:href="#DejaVuSans-Bold-3" transform="translate(670.796875 0)"/>
     <use xlink:href="#DejaVuSans-Bold-5a" transform="translate(705.609375 0)"/>
     <use xlink:href="#DejaVuSans-Bold-52" transform="translate(798 0)"/>
     <use xlink:href="#DejaVuSans-Bold-55" transform="translate(866.703125 0)"/>
     <use xlink:href="#DejaVuSans-Bold-4e" transform="translate(916.015625 0)"/>
     <use xlink:href="#DejaVuSans-Bold-f" transform="translate(982.515625 0)"/>
    </g>
    <!-- self-editing helps -->
    <g style="fill: #0f0e0b" transform="translate(427.797531 241.616391) scale(0.1 -0.1)">
     <defs>
      <path id="DejaVuSans-Bold-49" d="M 2841 4863 
L 2841 4128 
L 2222 4128 
Q 1984 4128 1890 4042 
Q 1797 3956 1797 3744 
L 1797 3500 
L 2753 3500 
L 2753 2700 
L 1797 2700 
L 1797 0 
L 678 0 
L 678 2700 
L 122 2700 
L 122 3500 
L 678 3500 
L 678 3744 
Q 678 4316 997 4589 
Q 1316 4863 1984 4863 
L 2841 4863 
z
" transform="scale(0.015625)"/>
     </defs>
     <use xlink:href="#DejaVuSans-Bold-56"/>
     <use xlink:href="#DejaVuSans-Bold-48" transform="translate(59.515625 0)"/>
     <use xlink:href="#DejaVuSans-Bold-4f" transform="translate(127.34375 0)"/>
     <use xlink:href="#DejaVuSans-Bold-49" transform="translate(161.625 0)"/>
     <use xlink:href="#DejaVuSans-Bold-10" transform="translate(203.375 0)"/>
     <use xlink:href="#DejaVuSans-Bold-48" transform="translate(244.875 0)"/>
     <use xlink:href="#DejaVuSans-Bold-47" transform="translate(312.703125 0)"/>
     <use xlink:href="#DejaVuSans-Bold-4c" transform="translate(384.28125 0)"/>
     <use xlink:href="#DejaVuSans-Bold-57" transform="translate(418.5625 0)"/>
     <use xlink:href="#DejaVuSans-Bold-4c" transform="translate(466.359375 0)"/>
     <use xlink:href="#DejaVuSans-Bold-51" transform="translate(500.640625 0)"/>
     <use xlink:href="#DejaVuSans-Bold-4a" transform="translate(571.828125 0)"/>
     <use xlink:href="#DejaVuSans-Bold-3" transform="translate(643.40625 0)"/>
     <use xlink:href="#DejaVuSans-Bold-4b" transform="translate(678.21875 0)"/>
     <use xlink:href="#DejaVuSans-Bold-48" transform="translate(749.40625 0)"/>
     <use xlink:href="#DejaVuSans-Bold-4f" transform="translate(817.234375 0)"/>
     <use xlink:href="#DejaVuSans-Bold-53" transform="translate(851.515625 0)"/>
     <use xlink:href="#DejaVuSans-Bold-56" transform="translate(923.09375 0)"/>
    </g>
   </g>
   <g id="text_13">
    <!-- NO -->
    <g style="fill: #0f0e0b" transform="translate(369.888844 333.135256) scale(0.1 -0.1)">
     <use xlink:href="#DejaVuSans-Bold-31"/>
     <use xlink:href="#DejaVuSans-Bold-32" transform="translate(83.6875 0)"/>
    </g>
   </g>
   <g id="text_14">
    <!-- ALLOW -->
    <g style="fill: #0f0e0b" transform="translate(457.099094 328.994922) scale(0.1 -0.1)">
     <use xlink:href="#DejaVuSans-Bold-24"/>
     <use xlink:href="#DejaVuSans-Bold-2f" transform="translate(77.390625 0)"/>
     <use xlink:href="#DejaVuSans-Bold-2f" transform="translate(141.109375 0)"/>
     <use xlink:href="#DejaVuSans-Bold-32" transform="translate(201.265625 0)"/>
     <use xlink:href="#DejaVuSans-Bold-3a" transform="translate(286.28125 0)"/>
    </g>
    <!-- low-stakes and -->
    <g style="fill: #0f0e0b" transform="translate(434.533469 340.997656) scale(0.1 -0.1)">
     <use xlink:href="#DejaVuSans-Bold-4f"/>
     <use xlink:href="#DejaVuSans-Bold-52" transform="translate(34.28125 0)"/>
     <use xlink:href="#DejaVuSans-Bold-5a" transform="translate(102.984375 0)"/>
     <use xlink:href="#DejaVuSans-Bold-10" transform="translate(195.375 0)"/>
     <use xlink:href="#DejaVuSans-Bold-56" transform="translate(236.875 0)"/>
     <use xlink:href="#DejaVuSans-Bold-57" transform="translate(296.390625 0)"/>
     <use xlink:href="#DejaVuSans-Bold-44" transform="translate(344.1875 0)"/>
     <use xlink:href="#DejaVuSans-Bold-4e" transform="translate(411.671875 0)"/>
     <use xlink:href="#DejaVuSans-Bold-48" transform="translate(475.484375 0)"/>
     <use xlink:href="#DejaVuSans-Bold-56" transform="translate(543.3125 0)"/>
     <use xlink:href="#DejaVuSans-Bold-3" transform="translate(602.828125 0)"/>
     <use xlink:href="#DejaVuSans-Bold-44" transform="translate(637.640625 0)"/>
     <use xlink:href="#DejaVuSans-Bold-51" transform="translate(705.125 0)"/>
     <use xlink:href="#DejaVuSans-Bold-47" transform="translate(776.3125 0)"/>
    </g>
    <!-- reversible, let it stand -->
    <g style="fill: #0f0e0b" transform="translate(413.981906 353.000391) scale(0.1 -0.1)">
     <defs>
      <path id="DejaVuSans-Bold-59" d="M 97 3500 
L 1216 3500 
L 2088 1081 
L 2956 3500 
L 4078 3500 
L 2700 0 
L 1472 0 
L 97 3500 
z
" transform="scale(0.015625)"/>
     </defs>
     <use xlink:href="#DejaVuSans-Bold-55"/>
     <use xlink:href="#DejaVuSans-Bold-48" transform="translate(49.3125 0)"/>
     <use xlink:href="#DejaVuSans-Bold-59" transform="translate(117.140625 0)"/>
     <use xlink:href="#DejaVuSans-Bold-48" transform="translate(182.328125 0)"/>
     <use xlink:href="#DejaVuSans-Bold-55" transform="translate(250.15625 0)"/>
     <use xlink:href="#DejaVuSans-Bold-56" transform="translate(299.46875 0)"/>
     <use xlink:href="#DejaVuSans-Bold-4c" transform="translate(358.984375 0)"/>
     <use xlink:href="#DejaVuSans-Bold-45" transform="translate(393.265625 0)"/>
     <use xlink:href="#DejaVuSans-Bold-4f" transform="translate(464.84375 0)"/>
     <use xlink:href="#DejaVuSans-Bold-48" transform="translate(499.125 0)"/>
     <use xlink:href="#DejaVuSans-Bold-f" transform="translate(566.953125 0)"/>
     <use xlink:href="#DejaVuSans-Bold-3" transform="translate(604.9375 0)"/>
     <use xlink:href="#DejaVuSans-Bold-4f" transform="translate(639.75 0)"/>
     <use xlink:href="#DejaVuSans-Bold-48" transform="translate(674.03125 0)"/>
     <use xlink:href="#DejaVuSans-Bold-57" transform="translate(741.859375 0)"/>
     <use xlink:href="#DejaVuSans-Bold-3" transform="translate(789.65625 0)"/>
     <use xlink:href="#DejaVuSans-Bold-4c" transform="translate(824.46875 0)"/>
     <use xlink:href="#DejaVuSans-Bold-57" transform="translate(858.75 0)"/>
     <use xlink:href="#DejaVuSans-Bold-3" transform="translate(906.546875 0)"/>
     <use xlink:href="#DejaVuSans-Bold-56" transform="translate(941.359375 0)"/>
     <use xlink:href="#DejaVuSans-Bold-57" transform="translate(1000.875 0)"/>
     <use xlink:href="#DejaVuSans-Bold-44" transform="translate(1048.671875 0)"/>
     <use xlink:href="#DejaVuSans-Bold-51" transform="translate(1116.15625 0)"/>
     <use xlink:href="#DejaVuSans-Bold-47" transform="translate(1187.34375 0)"/>
    </g>
   </g>
   <g id="text_15">
    <!-- YES -->
    <g style="fill: #0f0e0b" transform="translate(155.539281 506.763256) scale(0.1 -0.1)">
     <use xlink:href="#DejaVuSans-Bold-3c"/>
     <use xlink:href="#DejaVuSans-Bold-28" transform="translate(72.40625 0)"/>
     <use xlink:href="#DejaVuSans-Bold-36" transform="translate(140.71875 0)"/>
    </g>
   </g>
   <g id="text_16">
    <!-- REQUIRE -->
    <g style="fill: #f4f1e8" transform="translate(117.569656 564.867313) scale(0.1 -0.1)">
     <defs>
      <path id="DejaVuSans-Bold-35" d="M 2297 2597 
Q 2675 2597 2839 2737 
Q 3003 2878 3003 3200 
Q 3003 3519 2839 3656 
Q 2675 3794 2297 3794 
L 1791 3794 
L 1791 2597 
L 2297 2597 
z
M 1791 1766 
L 1791 0 
L 588 0 
L 588 4666 
L 2425 4666 
Q 3347 4666 3776 4356 
Q 4206 4047 4206 3378 
Q 4206 2916 3982 2619 
Q 3759 2322 3309 2181 
Q 3556 2125 3751 1926 
Q 3947 1728 4147 1325 
L 4800 0 
L 3519 0 
L 2950 1159 
Q 2778 1509 2601 1637 
Q 2425 1766 2131 1766 
L 1791 1766 
z
" transform="scale(0.015625)"/>
      <path id="DejaVuSans-Bold-34" d="M 2847 -84 
L 2753 -84 
Q 1600 -84 959 553 
Q 319 1191 319 2328 
Q 319 3463 958 4106 
Q 1597 4750 2719 4750 
Q 3853 4750 4486 4112 
Q 5119 3475 5119 2328 
Q 5119 1541 4783 972 
Q 4447 403 3816 116 
L 4756 -934 
L 3609 -934 
L 2847 -84 
z
M 2719 3878 
Q 2169 3878 1866 3472 
Q 1563 3066 1563 2328 
Q 1563 1578 1859 1179 
Q 2156 781 2719 781 
Q 3272 781 3575 1187 
Q 3878 1594 3878 2328 
Q 3878 3066 3575 3472 
Q 3272 3878 2719 3878 
z
" transform="scale(0.015625)"/>
      <path id="DejaVuSans-Bold-38" d="M 588 4666 
L 1791 4666 
L 1791 1869 
Q 1791 1291 1980 1042 
Q 2169 794 2597 794 
Q 3028 794 3217 1042 
Q 3406 1291 3406 1869 
L 3406 4666 
L 4609 4666 
L 4609 1869 
Q 4609 878 4112 393 
Q 3616 -91 2597 -91 
Q 1581 -91 1084 393 
Q 588 878 588 1869 
L 588 4666 
z
" transform="scale(0.015625)"/>
     </defs>
     <use xlink:href="#DejaVuSans-Bold-35"/>
     <use xlink:href="#DejaVuSans-Bold-28" transform="translate(77 0)"/>
     <use xlink:href="#DejaVuSans-Bold-34" transform="translate(145.3125 0)"/>
     <use xlink:href="#DejaVuSans-Bold-38" transform="translate(230.328125 0)"/>
     <use xlink:href="#DejaVuSans-Bold-2c" transform="translate(311.53125 0)"/>
     <use xlink:href="#DejaVuSans-Bold-35" transform="translate(348.734375 0)"/>
     <use xlink:href="#DejaVuSans-Bold-28" transform="translate(425.734375 0)"/>
    </g>
    <!-- INDEPENDENT CHECK -->
    <g style="fill: #f4f1e8" transform="translate(81.680594 576.869266) scale(0.1 -0.1)">
     <defs>
      <path id="DejaVuSans-Bold-33" d="M 588 4666 
L 2584 4666 
Q 3475 4666 3951 4270 
Q 4428 3875 4428 3144 
Q 4428 2409 3951 2014 
Q 3475 1619 2584 1619 
L 1791 1619 
L 1791 0 
L 588 0 
L 588 4666 
z
M 1791 3794 
L 1791 2491 
L 2456 2491 
Q 2806 2491 2997 2661 
Q 3188 2831 3188 3144 
Q 3188 3456 2997 3625 
Q 2806 3794 2456 3794 
L 1791 3794 
z
" transform="scale(0.015625)"/>
      <path id="DejaVuSans-Bold-37" d="M 31 4666 
L 4331 4666 
L 4331 3756 
L 2784 3756 
L 2784 0 
L 1581 0 
L 1581 3756 
L 31 3756 
L 31 4666 
z
" transform="scale(0.015625)"/>
      <path id="DejaVuSans-Bold-2b" d="M 588 4666 
L 1791 4666 
L 1791 2888 
L 3566 2888 
L 3566 4666 
L 4769 4666 
L 4769 0 
L 3566 0 
L 3566 1978 
L 1791 1978 
L 1791 0 
L 588 0 
L 588 4666 
z
" transform="scale(0.015625)"/>
      <path id="DejaVuSans-Bold-2e" d="M 588 4666 
L 1791 4666 
L 1791 2963 
L 3525 4666 
L 4922 4666 
L 2675 2456 
L 5153 0 
L 3647 0 
L 1791 1838 
L 1791 0 
L 588 0 
L 588 4666 
z
" transform="scale(0.015625)"/>
     </defs>
     <use xlink:href="#DejaVuSans-Bold-2c"/>
     <use xlink:href="#DejaVuSans-Bold-31" transform="translate(37.203125 0)"/>
     <use xlink:href="#DejaVuSans-Bold-27" transform="translate(120.890625 0)"/>
     <use xlink:href="#DejaVuSans-Bold-28" transform="translate(203.90625 0)"/>
     <use xlink:href="#DejaVuSans-Bold-33" transform="translate(272.21875 0)"/>
     <use xlink:href="#DejaVuSans-Bold-28" transform="translate(345.515625 0)"/>
     <use xlink:href="#DejaVuSans-Bold-31" transform="translate(413.828125 0)"/>
     <use xlink:href="#DejaVuSans-Bold-27" transform="translate(497.515625 0)"/>
     <use xlink:href="#DejaVuSans-Bold-28" transform="translate(580.53125 0)"/>
     <use xlink:href="#DejaVuSans-Bold-31" transform="translate(648.84375 0)"/>
     <use xlink:href="#DejaVuSans-Bold-37" transform="translate(732.53125 0)"/>
     <use xlink:href="#DejaVuSans-Bold-3" transform="translate(800.75 0)"/>
     <use xlink:href="#DejaVuSans-Bold-26" transform="translate(835.5625 0)"/>
     <use xlink:href="#DejaVuSans-Bold-2b" transform="translate(908.953125 0)"/>
     <use xlink:href="#DejaVuSans-Bold-28" transform="translate(992.640625 0)"/>
     <use xlink:href="#DejaVuSans-Bold-26" transform="translate(1060.953125 0)"/>
     <use xlink:href="#DejaVuSans-Bold-2e" transform="translate(1134.34375 0)"/>
    </g>
    <!-- (cross-model, tool, or human) -->
    <g style="fill: #f4f1e8" transform="translate(58.322781 588.872) scale(0.1 -0.1)">
     <use xlink:href="#DejaVuSans-Bold-b"/>
     <use xlink:href="#DejaVuSans-Bold-46" transform="translate(45.703125 0)"/>
     <use xlink:href="#DejaVuSans-Bold-55" transform="translate(104.984375 0)"/>
     <use xlink:href="#DejaVuSans-Bold-52" transform="translate(154.296875 0)"/>
     <use xlink:href="#DejaVuSans-Bold-56" transform="translate(223 0)"/>
     <use xlink:href="#DejaVuSans-Bold-56" transform="translate(282.515625 0)"/>
     <use xlink:href="#DejaVuSans-Bold-10" transform="translate(342.03125 0)"/>
     <use xlink:href="#DejaVuSans-Bold-50" transform="translate(383.53125 0)"/>
     <use xlink:href="#DejaVuSans-Bold-52" transform="translate(487.734375 0)"/>
     <use xlink:href="#DejaVuSans-Bold-47" transform="translate(556.4375 0)"/>
     <use xlink:href="#DejaVuSans-Bold-48" transform="translate(628.015625 0)"/>
     <use xlink:href="#DejaVuSans-Bold-4f" transform="translate(695.84375 0)"/>
     <use xlink:href="#DejaVuSans-Bold-f" transform="translate(730.125 0)"/>
     <use xlink:href="#DejaVuSans-Bold-3" transform="translate(768.109375 0)"/>
     <use xlink:href="#DejaVuSans-Bold-57" transform="translate(802.921875 0)"/>
     <use xlink:href="#DejaVuSans-Bold-52" transform="translate(850.71875 0)"/>
     <use xlink:href="#DejaVuSans-Bold-52" transform="translate(919.421875 0)"/>
     <use xlink:href="#DejaVuSans-Bold-4f" transform="translate(988.125 0)"/>
     <use xlink:href="#DejaVuSans-Bold-f" transform="translate(1022.40625 0)"/>
     <use xlink:href="#DejaVuSans-Bold-3" transform="translate(1060.390625 0)"/>
     <use xlink:href="#DejaVuSans-Bold-52" transform="translate(1095.203125 0)"/>
     <use xlink:href="#DejaVuSans-Bold-55" transform="translate(1163.90625 0)"/>
     <use xlink:href="#DejaVuSans-Bold-3" transform="translate(1213.21875 0)"/>
     <use xlink:href="#DejaVuSans-Bold-4b" transform="translate(1248.03125 0)"/>
     <use xlink:href="#DejaVuSans-Bold-58" transform="translate(1319.21875 0)"/>
     <use xlink:href="#DejaVuSans-Bold-50" transform="translate(1390.40625 0)"/>
     <use xlink:href="#DejaVuSans-Bold-44" transform="translate(1494.609375 0)"/>
     <use xlink:href="#DejaVuSans-Bold-51" transform="translate(1562.09375 0)"/>
     <use xlink:href="#DejaVuSans-Bold-c" transform="translate(1633.28125 0)"/>
    </g>
   </g>
   <g id="text_17">
    <!-- NO -->
    <g style="fill: #0f0e0b" transform="translate(325.068844 506.763256) scale(0.1 -0.1)">
     <use xlink:href="#DejaVuSans-Bold-31"/>
     <use xlink:href="#DejaVuSans-Bold-32" transform="translate(83.6875 0)"/>
    </g>
   </g>
   <g id="text_18">
    <!-- ESCALATE -->
    <g style="fill: #0f0e0b" transform="translate(365.214781 564.867313) scale(0.1 -0.1)">
     <use xlink:href="#DejaVuSans-Bold-28"/>
     <use xlink:href="#DejaVuSans-Bold-36" transform="translate(68.3125 0)"/>
     <use xlink:href="#DejaVuSans-Bold-26" transform="translate(140.328125 0)"/>
     <use xlink:href="#DejaVuSans-Bold-24" transform="translate(213.71875 0)"/>
     <use xlink:href="#DejaVuSans-Bold-2f" transform="translate(291.109375 0)"/>
     <use xlink:href="#DejaVuSans-Bold-24" transform="translate(354.828125 0)"/>
     <use xlink:href="#DejaVuSans-Bold-37" transform="translate(424.453125 0)"/>
     <use xlink:href="#DejaVuSans-Bold-28" transform="translate(492.671875 0)"/>
    </g>
    <!-- TO A HUMAN -->
    <g style="fill: #0f0e0b" transform="translate(356.977281 576.869266) scale(0.1 -0.1)">
     <defs>
      <path id="DejaVuSans-Bold-30" d="M 588 4666 
L 2119 4666 
L 3181 2169 
L 4250 4666 
L 5778 4666 
L 5778 0 
L 4641 0 
L 4641 3413 
L 3566 897 
L 2803 897 
L 1728 3413 
L 1728 0 
L 588 0 
L 588 4666 
z
" transform="scale(0.015625)"/>
     </defs>
     <use xlink:href="#DejaVuSans-Bold-37"/>
     <use xlink:href="#DejaVuSans-Bold-32" transform="translate(68.21875 0)"/>
     <use xlink:href="#DejaVuSans-Bold-3" transform="translate(153.234375 0)"/>
     <use xlink:href="#DejaVuSans-Bold-24" transform="translate(188.046875 0)"/>
     <use xlink:href="#DejaVuSans-Bold-3" transform="translate(265.4375 0)"/>
     <use xlink:href="#DejaVuSans-Bold-2b" transform="translate(300.25 0)"/>
     <use xlink:href="#DejaVuSans-Bold-38" transform="translate(383.9375 0)"/>
     <use xlink:href="#DejaVuSans-Bold-30" transform="translate(465.140625 0)"/>
     <use xlink:href="#DejaVuSans-Bold-24" transform="translate(564.65625 0)"/>
     <use xlink:href="#DejaVuSans-Bold-31" transform="translate(642.046875 0)"/>
    </g>
    <!-- (no check is available) -->
    <g style="fill: #0f0e0b" transform="translate(330.089 588.872) scale(0.1 -0.1)">
     <use xlink:href="#DejaVuSans-Bold-b"/>
     <use xlink:href="#DejaVuSans-Bold-51" transform="translate(45.703125 0)"/>
     <use xlink:href="#DejaVuSans-Bold-52" transform="translate(116.890625 0)"/>
     <use xlink:href="#DejaVuSans-Bold-3" transform="translate(185.59375 0)"/>
     <use xlink:href="#DejaVuSans-Bold-46" transform="translate(220.40625 0)"/>
     <use xlink:href="#DejaVuSans-Bold-4b" transform="translate(279.6875 0)"/>
     <use xlink:href="#DejaVuSans-Bold-48" transform="translate(350.875 0)"/>
     <use xlink:href="#DejaVuSans-Bold-46" transform="translate(418.703125 0)"/>
     <use xlink:href="#DejaVuSans-Bold-4e" transform="translate(477.984375 0)"/>
     <use xlink:href="#DejaVuSans-Bold-3" transform="translate(544.484375 0)"/>
     <use xlink:href="#DejaVuSans-Bold-4c" transform="translate(579.296875 0)"/>
     <use xlink:href="#DejaVuSans-Bold-56" transform="translate(613.578125 0)"/>
     <use xlink:href="#DejaVuSans-Bold-3" transform="translate(673.09375 0)"/>
     <use xlink:href="#DejaVuSans-Bold-44" transform="translate(707.90625 0)"/>
     <use xlink:href="#DejaVuSans-Bold-59" transform="translate(775.390625 0)"/>
     <use xlink:href="#DejaVuSans-Bold-44" transform="translate(840.578125 0)"/>
     <use xlink:href="#DejaVuSans-Bold-4c" transform="translate(908.0625 0)"/>
     <use xlink:href="#DejaVuSans-Bold-4f" transform="translate(942.34375 0)"/>
     <use xlink:href="#DejaVuSans-Bold-44" transform="translate(976.625 0)"/>
     <use xlink:href="#DejaVuSans-Bold-45" transform="translate(1044.109375 0)"/>
     <use xlink:href="#DejaVuSans-Bold-4f" transform="translate(1115.6875 0)"/>
     <use xlink:href="#DejaVuSans-Bold-48" transform="translate(1149.96875 0)"/>
     <use xlink:href="#DejaVuSans-Bold-c" transform="translate(1217.796875 0)"/>
    </g>
   </g>
   <g id="text_19">
    <!-- The rule restricts exactly one path. Everything else is allowed. -->
    <g style="fill: #0f0e0b" transform="translate(153.392969 642.390047) scale(0.1 -0.1)">
     <defs>
      <path id="DejaVuSans-Oblique-37" d="M 378 4666 
L 4325 4666 
L 4225 4134 
L 2559 4134 
L 1759 0 
L 1125 0 
L 1925 4134 
L 275 4134 
L 378 4666 
z
" transform="scale(0.015625)"/>
      <path id="DejaVuSans-Oblique-4b" d="M 3566 2113 
L 3156 0 
L 2578 0 
L 2988 2091 
Q 3016 2238 3031 2350 
Q 3047 2463 3047 2528 
Q 3047 2791 2881 2937 
Q 2716 3084 2419 3084 
Q 1956 3084 1617 2771 
Q 1278 2459 1178 1941 
L 800 0 
L 225 0 
L 1172 4863 
L 1747 4863 
L 1375 2950 
Q 1594 3244 1934 3414 
Q 2275 3584 2650 3584 
Q 3113 3584 3367 3334 
Q 3622 3084 3622 2631 
Q 3622 2519 3608 2391 
Q 3594 2263 3566 2113 
z
" transform="scale(0.015625)"/>
      <path id="DejaVuSans-Oblique-48" d="M 3078 2063 
Q 3088 2113 3092 2166 
Q 3097 2219 3097 2272 
Q 3097 2653 2873 2875 
Q 2650 3097 2266 3097 
Q 1838 3097 1509 2826 
Q 1181 2556 1013 2059 
L 3078 2063 
z
M 3578 1613 
L 903 1613 
Q 884 1494 878 1425 
Q 872 1356 872 1306 
Q 872 872 1139 634 
Q 1406 397 1894 397 
Q 2269 397 2603 481 
Q 2938 566 3225 728 
L 3116 159 
Q 2806 34 2476 -28 
Q 2147 -91 1806 -91 
Q 1078 -91 686 257 
Q 294 606 294 1247 
Q 294 1794 489 2264 
Q 684 2734 1063 3103 
Q 1306 3334 1642 3459 
Q 1978 3584 2356 3584 
Q 2950 3584 3301 3228 
Q 3653 2872 3653 2272 
Q 3653 2128 3634 1964 
Q 3616 1800 3578 1613 
z
" transform="scale(0.015625)"/>
      <path id="DejaVuSans-Oblique-3" transform="scale(0.015625)"/>
      <path id="DejaVuSans-Oblique-55" d="M 2853 2969 
Q 2766 3016 2653 3041 
Q 2541 3066 2413 3066 
Q 1953 3066 1609 2717 
Q 1266 2369 1153 1784 
L 800 0 
L 225 0 
L 909 3500 
L 1484 3500 
L 1375 2956 
Q 1603 3259 1920 3421 
Q 2238 3584 2597 3584 
Q 2691 3584 2781 3573 
Q 2872 3563 2963 3538 
L 2853 2969 
z
" transform="scale(0.015625)"/>
      <path id="DejaVuSans-Oblique-58" d="M 428 1388 
L 838 3500 
L 1416 3500 
L 1006 1409 
Q 975 1256 961 1147 
Q 947 1038 947 966 
Q 947 700 1109 554 
Q 1272 409 1569 409 
Q 2031 409 2368 721 
Q 2706 1034 2809 1563 
L 3194 3500 
L 3769 3500 
L 3091 0 
L 2516 0 
L 2631 550 
Q 2388 244 2052 76 
Q 1716 -91 1338 -91 
Q 878 -91 622 161 
Q 366 413 366 863 
Q 366 956 381 1097 
Q 397 1238 428 1388 
z
" transform="scale(0.015625)"/>
      <path id="DejaVuSans-Oblique-4f" d="M 1172 4863 
L 1747 4863 
L 800 0 
L 225 0 
L 1172 4863 
z
" transform="scale(0.015625)"/>
      <path id="DejaVuSans-Oblique-56" d="M 3200 3397 
L 3091 2853 
Q 2863 2978 2609 3040 
Q 2356 3103 2088 3103 
Q 1634 3103 1373 2948 
Q 1113 2794 1113 2528 
Q 1113 2219 1719 2053 
Q 1766 2041 1788 2034 
L 1972 1978 
Q 2547 1819 2739 1644 
Q 2931 1469 2931 1166 
Q 2931 609 2489 259 
Q 2047 -91 1331 -91 
Q 1053 -91 747 -37 
Q 441 16 72 128 
L 184 722 
Q 500 559 806 475 
Q 1113 391 1394 391 
Q 1816 391 2080 572 
Q 2344 753 2344 1031 
Q 2344 1331 1650 1516 
L 1591 1531 
L 1394 1581 
Q 956 1697 753 1886 
Q 550 2075 550 2369 
Q 550 2928 970 3256 
Q 1391 3584 2113 3584 
Q 2397 3584 2667 3537 
Q 2938 3491 3200 3397 
z
" transform="scale(0.015625)"/>
      <path id="DejaVuSans-Oblique-57" d="M 2706 3500 
L 2619 3053 
L 1472 3053 
L 1100 1153 
Q 1081 1047 1072 975 
Q 1063 903 1063 863 
Q 1063 663 1183 572 
Q 1303 481 1569 481 
L 2150 481 
L 2053 0 
L 1503 0 
Q 991 0 739 200 
Q 488 400 488 806 
Q 488 878 497 964 
Q 506 1050 525 1153 
L 897 3053 
L 409 3053 
L 500 3500 
L 978 3500 
L 1172 4494 
L 1747 4494 
L 1556 3500 
L 2706 3500 
z
" transform="scale(0.015625)"/>
      <path id="DejaVuSans-Oblique-4c" d="M 1172 4863 
L 1747 4863 
L 1606 4134 
L 1031 4134 
L 1172 4863 
z
M 909 3500 
L 1484 3500 
L 800 0 
L 225 0 
L 909 3500 
z
" transform="scale(0.015625)"/>
      <path id="DejaVuSans-Oblique-46" d="M 3431 3366 
L 3316 2797 
Q 3109 2947 2876 3022 
Q 2644 3097 2394 3097 
Q 2119 3097 1870 3000 
Q 1622 2903 1453 2725 
Q 1184 2453 1037 2087 
Q 891 1722 891 1331 
Q 891 859 1127 628 
Q 1363 397 1844 397 
Q 2081 397 2348 469 
Q 2616 541 2906 684 
L 2797 116 
Q 2547 13 2283 -39 
Q 2019 -91 1741 -91 
Q 1044 -91 669 257 
Q 294 606 294 1253 
Q 294 1797 489 2255 
Q 684 2713 1069 3078 
Q 1331 3328 1684 3456 
Q 2038 3584 2456 3584 
Q 2700 3584 2940 3529 
Q 3181 3475 3431 3366 
z
" transform="scale(0.015625)"/>
      <path id="DejaVuSans-Oblique-5b" d="M 3841 3500 
L 2234 1784 
L 3219 0 
L 2559 0 
L 1819 1388 
L 531 0 
L -166 0 
L 1556 1844 
L 641 3500 
L 1300 3500 
L 1972 2234 
L 3144 3500 
L 3841 3500 
z
" transform="scale(0.015625)"/>
      <path id="DejaVuSans-Oblique-44" d="M 3438 1997 
L 3047 0 
L 2472 0 
L 2578 531 
Q 2325 219 2001 64 
Q 1678 -91 1281 -91 
Q 834 -91 548 182 
Q 263 456 263 884 
Q 263 1497 752 1853 
Q 1241 2209 2100 2209 
L 2900 2209 
L 2931 2363 
Q 2938 2388 2941 2417 
Q 2944 2447 2944 2509 
Q 2944 2788 2717 2942 
Q 2491 3097 2081 3097 
Q 1800 3097 1504 3025 
Q 1209 2953 897 2809 
L 997 3341 
Q 1322 3463 1633 3523 
Q 1944 3584 2234 3584 
Q 2853 3584 3176 3315 
Q 3500 3047 3500 2534 
Q 3500 2431 3484 2292 
Q 3469 2153 3438 1997 
z
M 2816 1759 
L 2241 1759 
Q 1534 1759 1195 1570 
Q 856 1381 856 984 
Q 856 709 1029 553 
Q 1203 397 1509 397 
Q 1978 397 2328 733 
Q 2678 1069 2791 1631 
L 2816 1759 
z
" transform="scale(0.015625)"/>
      <path id="DejaVuSans-Oblique-5c" d="M 1588 -325 
Q 1188 -997 936 -1164 
Q 684 -1331 294 -1331 
L -159 -1331 
L -63 -850 
L 269 -850 
Q 509 -850 678 -719 
Q 847 -588 1056 -206 
L 1234 128 
L 459 3500 
L 1069 3500 
L 1650 819 
L 3256 3500 
L 3859 3500 
L 1588 -325 
z
" transform="scale(0.015625)"/>
      <path id="DejaVuSans-Oblique-52" d="M 1625 -91 
Q 1009 -91 651 289 
Q 294 669 294 1325 
Q 294 1706 417 2101 
Q 541 2497 738 2766 
Q 1047 3184 1428 3384 
Q 1809 3584 2291 3584 
Q 2888 3584 3255 3212 
Q 3622 2841 3622 2241 
Q 3622 1825 3500 1412 
Q 3378 1000 3181 728 
Q 2875 309 2494 109 
Q 2113 -91 1625 -91 
z
M 891 1344 
Q 891 869 1089 633 
Q 1288 397 1691 397 
Q 2269 397 2648 901 
Q 3028 1406 3028 2181 
Q 3028 2634 2825 2865 
Q 2622 3097 2228 3097 
Q 1903 3097 1650 2945 
Q 1397 2794 1197 2484 
Q 1050 2253 970 1956 
Q 891 1659 891 1344 
z
" transform="scale(0.015625)"/>
      <path id="DejaVuSans-Oblique-51" d="M 3566 2113 
L 3156 0 
L 2578 0 
L 2988 2091 
Q 3016 2238 3031 2350 
Q 3047 2463 3047 2528 
Q 3047 2791 2881 2937 
Q 2716 3084 2419 3084 
Q 1956 3084 1622 2776 
Q 1288 2469 1184 1941 
L 800 0 
L 225 0 
L 903 3500 
L 1478 3500 
L 1363 2950 
Q 1603 3253 1940 3418 
Q 2278 3584 2650 3584 
Q 3113 3584 3367 3334 
Q 3622 3084 3622 2631 
Q 3622 2519 3608 2391 
Q 3594 2263 3566 2113 
z
" transform="scale(0.015625)"/>
      <path id="DejaVuSans-Oblique-53" d="M 3175 2156 
Q 3175 2616 2975 2859 
Q 2775 3103 2400 3103 
Q 2144 3103 1911 2972 
Q 1678 2841 1497 2591 
Q 1319 2344 1212 1994 
Q 1106 1644 1106 1300 
Q 1106 863 1306 627 
Q 1506 391 1875 391 
Q 2147 391 2380 519 
Q 2613 647 2778 891 
Q 2956 1147 3065 1494 
Q 3175 1841 3175 2156 
z
M 1394 2969 
Q 1625 3272 1939 3428 
Q 2253 3584 2638 3584 
Q 3175 3584 3472 3232 
Q 3769 2881 3769 2247 
Q 3769 1728 3584 1258 
Q 3400 788 3053 416 
Q 2822 169 2531 39 
Q 2241 -91 1919 -91 
Q 1547 -91 1294 64 
Q 1041 219 916 525 
L 556 -1331 
L -19 -1331 
L 922 3500 
L 1497 3500 
L 1394 2969 
z
" transform="scale(0.015625)"/>
      <path id="DejaVuSans-Oblique-11" d="M 525 794 
L 1184 794 
L 1031 0 
L 372 0 
L 525 794 
z
" transform="scale(0.015625)"/>
      <path id="DejaVuSans-Oblique-28" d="M 1081 4666 
L 4031 4666 
L 3928 4134 
L 1606 4134 
L 1338 2753 
L 3566 2753 
L 3463 2222 
L 1234 2222 
L 909 531 
L 3284 531 
L 3181 0 
L 172 0 
L 1081 4666 
z
" transform="scale(0.015625)"/>
      <path id="DejaVuSans-Oblique-59" d="M 459 3500 
L 1069 3500 
L 1581 525 
L 3256 3500 
L 3866 3500 
L 1875 0 
L 1100 0 
L 459 3500 
z
" transform="scale(0.015625)"/>
      <path id="DejaVuSans-Oblique-4a" d="M 3816 3500 
L 3219 434 
Q 3047 -456 2561 -893 
Q 2075 -1331 1253 -1331 
Q 950 -1331 690 -1286 
Q 431 -1241 206 -1147 
L 313 -588 
Q 525 -725 762 -790 
Q 1000 -856 1269 -856 
Q 1816 -856 2167 -557 
Q 2519 -259 2631 300 
L 2681 563 
Q 2441 288 2122 144 
Q 1803 0 1434 0 
Q 903 0 598 351 
Q 294 703 294 1319 
Q 294 1803 478 2267 
Q 663 2731 997 3091 
Q 1219 3328 1514 3456 
Q 1809 3584 2131 3584 
Q 2484 3584 2746 3420 
Q 3009 3256 3138 2956 
L 3238 3500 
L 3816 3500 
z
M 2950 2216 
Q 2950 2641 2750 2872 
Q 2550 3103 2181 3103 
Q 1953 3103 1747 3012 
Q 1541 2922 1394 2759 
Q 1156 2491 1023 2127 
Q 891 1763 891 1375 
Q 891 944 1092 712 
Q 1294 481 1672 481 
Q 2219 481 2584 976 
Q 2950 1472 2950 2216 
z
" transform="scale(0.015625)"/>
      <path id="DejaVuSans-Oblique-5a" d="M 544 3500 
L 1113 3500 
L 1259 684 
L 2566 3500 
L 3231 3500 
L 3425 684 
L 4666 3500 
L 5241 3500 
L 3641 0 
L 2969 0 
L 2797 2900 
L 1459 0 
L 781 0 
L 544 3500 
z
" transform="scale(0.015625)"/>
      <path id="DejaVuSans-Oblique-47" d="M 2675 525 
Q 2444 222 2128 65 
Q 1813 -91 1428 -91 
Q 903 -91 598 267 
Q 294 625 294 1247 
Q 294 1766 478 2236 
Q 663 2706 1013 3078 
Q 1244 3325 1534 3454 
Q 1825 3584 2144 3584 
Q 2481 3584 2739 3421 
Q 2997 3259 3138 2956 
L 3513 4863 
L 4091 4863 
L 3144 0 
L 2566 0 
L 2675 525 
z
M 891 1350 
Q 891 897 1095 644 
Q 1300 391 1663 391 
Q 1931 391 2161 520 
Q 2391 650 2566 903 
Q 2750 1166 2856 1509 
Q 2963 1853 2963 2188 
Q 2963 2622 2758 2865 
Q 2553 3109 2194 3109 
Q 1922 3109 1687 2981 
Q 1453 2853 1288 2613 
Q 1106 2353 998 2009 
Q 891 1666 891 1350 
z
" transform="scale(0.015625)"/>
     </defs>
     <use xlink:href="#DejaVuSans-Oblique-37"/>
     <use xlink:href="#DejaVuSans-Oblique-4b" transform="translate(61.078125 0)"/>
     <use xlink:href="#DejaVuSans-Oblique-48" transform="translate(124.453125 0)"/>
     <use xlink:href="#DejaVuSans-Oblique-3" transform="translate(185.984375 0)"/>
     <use xlink:href="#DejaVuSans-Oblique-55" transform="translate(217.765625 0)"/>
     <use xlink:href="#DejaVuSans-Oblique-58" transform="translate(258.875 0)"/>
     <use xlink:href="#DejaVuSans-Oblique-4f" transform="translate(322.25 0)"/>
     <use xlink:href="#DejaVuSans-Oblique-48" transform="translate(350.03125 0)"/>
     <use xlink:href="#DejaVuSans-Oblique-3" transform="translate(411.5625 0)"/>
     <use xlink:href="#DejaVuSans-Oblique-55" transform="translate(443.34375 0)"/>
     <use xlink:href="#DejaVuSans-Oblique-48" transform="translate(484.453125 0)"/>
     <use xlink:href="#DejaVuSans-Oblique-56" transform="translate(545.984375 0)"/>
     <use xlink:href="#DejaVuSans-Oblique-57" transform="translate(598.078125 0)"/>
     <use xlink:href="#DejaVuSans-Oblique-55" transform="translate(637.28125 0)"/>
     <use xlink:href="#DejaVuSans-Oblique-4c" transform="translate(678.390625 0)"/>
     <use xlink:href="#DejaVuSans-Oblique-46" transform="translate(706.171875 0)"/>
     <use xlink:href="#DejaVuSans-Oblique-57" transform="translate(761.15625 0)"/>
     <use xlink:href="#DejaVuSans-Oblique-56" transform="translate(800.359375 0)"/>
     <use xlink:href="#DejaVuSans-Oblique-3" transform="translate(852.453125 0)"/>
     <use xlink:href="#DejaVuSans-Oblique-48" transform="translate(884.234375 0)"/>
     <use xlink:href="#DejaVuSans-Oblique-5b" transform="translate(945.765625 0)"/>
     <use xlink:href="#DejaVuSans-Oblique-44" transform="translate(1004.953125 0)"/>
     <use xlink:href="#DejaVuSans-Oblique-46" transform="translate(1066.234375 0)"/>
     <use xlink:href="#DejaVuSans-Oblique-57" transform="translate(1121.21875 0)"/>
     <use xlink:href="#DejaVuSans-Oblique-4f" transform="translate(1160.421875 0)"/>
     <use xlink:href="#DejaVuSans-Oblique-5c" transform="translate(1188.203125 0)"/>
     <use xlink:href="#DejaVuSans-Oblique-3" transform="translate(1247.390625 0)"/>
     <use xlink:href="#DejaVuSans-Oblique-52" transform="translate(1279.171875 0)"/>
     <use xlink:href="#DejaVuSans-Oblique-51" transform="translate(1340.359375 0)"/>
     <use xlink:href="#DejaVuSans-Oblique-48" transform="translate(1403.734375 0)"/>
     <use xlink:href="#DejaVuSans-Oblique-3" transform="translate(1465.265625 0)"/>
     <use xlink:href="#DejaVuSans-Oblique-53" transform="translate(1497.046875 0)"/>
     <use xlink:href="#DejaVuSans-Oblique-44" transform="translate(1560.53125 0)"/>
     <use xlink:href="#DejaVuSans-Oblique-57" transform="translate(1621.8125 0)"/>
     <use xlink:href="#DejaVuSans-Oblique-4b" transform="translate(1661.015625 0)"/>
     <use xlink:href="#DejaVuSans-Oblique-11" transform="translate(1724.390625 0)"/>
     <use xlink:href="#DejaVuSans-Oblique-3" transform="translate(1756.171875 0)"/>
     <use xlink:href="#DejaVuSans-Oblique-28" transform="translate(1787.953125 0)"/>
     <use xlink:href="#DejaVuSans-Oblique-59" transform="translate(1851.140625 0)"/>
     <use xlink:href="#DejaVuSans-Oblique-48" transform="translate(1910.328125 0)"/>
     <use xlink:href="#DejaVuSans-Oblique-55" transform="translate(1971.859375 0)"/>
     <use xlink:href="#DejaVuSans-Oblique-5c" transform="translate(2012.96875 0)"/>
     <use xlink:href="#DejaVuSans-Oblique-57" transform="translate(2072.15625 0)"/>
     <use xlink:href="#DejaVuSans-Oblique-4b" transform="translate(2111.359375 0)"/>
     <use xlink:href="#DejaVuSans-Oblique-4c" transform="translate(2174.734375 0)"/>
     <use xlink:href="#DejaVuSans-Oblique-51" transform="translate(2202.515625 0)"/>
     <use xlink:href="#DejaVuSans-Oblique-4a" transform="translate(2265.890625 0)"/>
     <use xlink:href="#DejaVuSans-Oblique-3" transform="translate(2329.375 0)"/>
     <use xlink:href="#DejaVuSans-Oblique-48" transform="translate(2361.15625 0)"/>
     <use xlink:href="#DejaVuSans-Oblique-4f" transform="translate(2422.6875 0)"/>
     <use xlink:href="#DejaVuSans-Oblique-56" transform="translate(2450.46875 0)"/>
     <use xlink:href="#DejaVuSans-Oblique-48" transform="translate(2502.5625 0)"/>
     <use xlink:href="#DejaVuSans-Oblique-3" transform="translate(2564.09375 0)"/>
     <use xlink:href="#DejaVuSans-Oblique-4c" transform="translate(2595.875 0)"/>
     <use xlink:href="#DejaVuSans-Oblique-56" transform="translate(2623.65625 0)"/>
     <use xlink:href="#DejaVuSans-Oblique-3" transform="translate(2675.75 0)"/>
     <use xlink:href="#DejaVuSans-Oblique-44" transform="translate(2707.53125 0)"/>
     <use xlink:href="#DejaVuSans-Oblique-4f" transform="translate(2768.8125 0)"/>
     <use xlink:href="#DejaVuSans-Oblique-4f" transform="translate(2796.59375 0)"/>
     <use xlink:href="#DejaVuSans-Oblique-52" transform="translate(2824.375 0)"/>
     <use xlink:href="#DejaVuSans-Oblique-5a" transform="translate(2885.5625 0)"/>
     <use xlink:href="#DejaVuSans-Oblique-48" transform="translate(2967.34375 0)"/>
     <use xlink:href="#DejaVuSans-Oblique-47" transform="translate(3028.875 0)"/>
     <use xlink:href="#DejaVuSans-Oblique-11" transform="translate(3092.359375 0)"/>
    </g>
   </g>
  </g>
 </g>
 <defs>
  <clipPath id="pf77eeb46b0">
   <rect x="10.8" y="10.8" width="597.6" height="655.2"/>
  </clipPath>
 </defs>
</svg>
