<svg xmlns="http://www.w3.org/2000/svg" width="512" height="512" viewBox="0 0 512 512" role="img" aria-label="notsofast icon: a stop hand halting speed lines"><title>notsofast</title><desc>A cream stop hand halting blue and green speed lines on an ink rounded square</desc>
<rect x="0" y="0" width="512" height="512" rx="116" fill="#0F0E0B"/>
<rect x="26" y="26" width="460" height="460" rx="92" fill="none" stroke="#1B3DFF" stroke-width="5" opacity="0.85"/>
<line x1="120" y1="250" x2="220" y2="250" stroke="#1B3DFF" stroke-width="18" stroke-linecap="round"/>
<line x1="104" y1="288" x2="220" y2="288" stroke="#00B870" stroke-width="18" stroke-linecap="round"/>
<line x1="132" y1="326" x2="220" y2="326" stroke="#1B3DFF" stroke-width="18" stroke-linecap="round"/>
<rect x="226" y="282" width="26" height="74" rx="13" fill="#F4F1E8" transform="rotate(-38 239 319)"/>
<rect x="262" y="250" width="112" height="130" rx="30" fill="#F4F1E8"/>
<rect x="266" y="168" width="23" height="90" rx="11.5" fill="#F4F1E8"/>
<rect x="295" y="152" width="23" height="106" rx="11.5" fill="#F4F1E8"/>
<rect x="324" y="160" width="23" height="98" rx="11.5" fill="#F4F1E8"/>
<rect x="353" y="178" width="23" height="80" rx="11.5" fill="#F4F1E8"/>
<path d="M442 398 L470 398 L456 374 Z" fill="#00B870"/>
</svg>
