<svg xmlns="http://www.w3.org/2000/svg" width="1280" height="640" viewBox="0 0 1280 640" role="img" aria-label="notsofast social card">
<rect width="1280" height="640" fill="#0F0E0B"/>
<line x1="0" y1="160" x2="1280" y2="160" stroke="#1B3DFF" stroke-width="1" opacity="0.13"/>
<line x1="0" y1="320" x2="1280" y2="320" stroke="#1B3DFF" stroke-width="1" opacity="0.13"/>
<line x1="0" y1="480" x2="1280" y2="480" stroke="#1B3DFF" stroke-width="1" opacity="0.13"/>
<g transform="translate(936,150) scale(0.52)">
<rect x="0" y="0" width="512" height="512" rx="116" fill="#0F0E0B"/>
<rect x="26" y="26" width="460" height="460" rx="92" fill="none" stroke="#1B3DFF" stroke-width="5" opacity="0.85"/>
<line x1="120" y1="250" x2="220" y2="250" stroke="#1B3DFF" stroke-width="18" stroke-linecap="round"/>
<line x1="104" y1="288" x2="220" y2="288" stroke="#00B870" stroke-width="18" stroke-linecap="round"/>
<line x1="132" y1="326" x2="220" y2="326" stroke="#1B3DFF" stroke-width="18" stroke-linecap="round"/>
<rect x="226" y="282" width="26" height="74" rx="13" fill="#F4F1E8" transform="rotate(-38 239 319)"/>
<rect x="262" y="250" width="112" height="130" rx="30" fill="#F4F1E8"/>
<rect x="266" y="168" width="23" height="90" rx="11.5" fill="#F4F1E8"/>
<rect x="295" y="152" width="23" height="106" rx="11.5" fill="#F4F1E8"/>
<rect x="324" y="160" width="23" height="98" rx="11.5" fill="#F4F1E8"/>
<rect x="353" y="178" width="23" height="80" rx="11.5" fill="#F4F1E8"/>
<path d="M442 398 L470 398 L456 374 Z" fill="#00B870"/>
</g>
<text x="80" y="150" font-family="ui-monospace, monospace" font-size="22" font-weight="bold" letter-spacing="4" fill="#1B3DFF">VERIFICATION SKILL // AGENTIC AI</text>
<text x="76" y="288" font-family="ui-monospace, monospace" font-size="108" font-weight="bold" letter-spacing="-3" fill="#F4F1E8">notsofast</text>
<text x="80" y="352" font-family="ui-sans-serif, system-ui, sans-serif" font-size="34" fill="#F4F1E8" opacity="0.82">The independent check an AI loop can&apos;t skip.</text>
<rect x="80" y="408" width="150" height="52" rx="10" fill="none" stroke="#00B870" stroke-width="2"/>
<text x="155" y="441" font-family="ui-monospace, monospace" font-size="18" font-weight="bold" letter-spacing="1" fill="#00B870" text-anchor="middle">ALLOW</text>
<rect x="246" y="408" width="372" height="52" rx="10" fill="none" stroke="#1B3DFF" stroke-width="2"/>
<text x="432" y="441" font-family="ui-monospace, monospace" font-size="18" font-weight="bold" letter-spacing="1" fill="#1B3DFF" text-anchor="middle">REQUIRE INDEPENDENT CHECK</text>
<rect x="634" y="408" width="172" height="52" rx="10" fill="none" stroke="#F4F1E8" stroke-width="2" opacity="0.6"/>
<text x="720" y="441" font-family="ui-monospace, monospace" font-size="18" font-weight="bold" letter-spacing="1" fill="#F4F1E8" text-anchor="middle" opacity="0.85">ESCALATE</text>
<text x="80" y="592" font-family="ui-monospace, monospace" font-size="17" letter-spacing="1" fill="#F4F1E8" opacity="0.5">SARTHAK GUPTA // DATA SCIENTIST II, FINANCE MODELS // PERSONAL CAPACITY</text>
</svg>
